<?xml version="1.0" standalone="no"?>
<!DOCTYPE svg PUBLIC "-//W3C//DTD SVG 20010904//EN"
 "http://www.w3.org/TR/2001/REC-SVG-20010904/DTD/svg10.dtd">
<svg version="1.0" xmlns="http://www.w3.org/2000/svg"
 width="1167.000000pt" height="305.000000pt" viewBox="0 0 1167.000000 305.000000"
 preserveAspectRatio="xMidYMid meet">

<g transform="translate(0.000000,305.000000) scale(0.100000,-0.100000)"
fill="#000000" stroke="none">
<path d="M1851 2908 c-17 -77 -28 -144 -24 -148 4 -4 40 -18 78 -30 124 -40
290 -131 385 -211 l46 -37 103 119 104 120 -28 29 c-16 16 -46 42 -68 57 l-40
28 -26 -34 c-14 -18 -35 -44 -46 -57 l-20 -25 -37 26 c-21 14 -38 32 -38 40 0
8 14 36 30 62 17 26 30 52 30 58 0 11 -128 85 -147 85 -5 0 -21 -28 -35 -62
-24 -57 -29 -63 -54 -61 -45 4 -48 16 -24 88 12 36 20 68 19 69 -15 12 -81 26
-124 26 l-51 0 -33 -142z"/>
<path d="M815 2942 c-147 -77 -295 -195 -420 -334 -78 -87 -205 -270 -205
-296 0 -12 44 -41 137 -91 125 -68 138 -73 147 -57 144 239 338 420 561 521
41 19 99 42 130 50 30 9 55 19 55 23 0 28 -45 162 -54 162 -58 0 -277 -99
-401 -182 -92 -61 -298 -257 -335 -317 -24 -38 -49 -50 -57 -25 -6 17 76 120
164 207 97 96 209 180 313 236 44 23 80 46 80 50 0 14 -29 79 -38 85 -4 2 -39
-12 -77 -32z"/>
<path d="M1430 2948 c0 -13 3 -53 7 -90 5 -57 9 -68 24 -68 17 0 19 9 19 90 0
89 0 90 -25 90 -19 0 -25 -5 -25 -22z"/>
<path d="M1590 2880 c0 -81 2 -90 19 -90 15 0 19 10 25 53 3 28 6 69 6 90 0
33 -3 37 -25 37 -25 0 -25 -1 -25 -90z"/>
<path d="M1274 2898 c11 -84 25 -128 42 -128 23 0 25 19 12 100 -12 67 -15 75
-37 78 -23 4 -24 3 -17 -50z"/>
<path d="M1400 2679 c-109 -13 -241 -53 -355 -108 -558 -269 -789 -937 -519
-1500 151 -317 438 -538 794 -613 137 -29 363 -22 505 16 119 31 293 115 386
185 200 152 351 377 416 619 24 87 27 115 27 282 1 172 -1 192 -27 285 -126
459 -503 782 -972 835 -102 11 -148 11 -255 -1z m281 -82 c7 -16 7 -31 0 -51
-10 -25 -14 -27 -44 -21 -17 4 -36 11 -41 16 -6 5 -42 9 -81 9 l-71 0 -59 -60
c-32 -33 -64 -74 -69 -92 -9 -28 -17 -34 -45 -36 -38 -4 -51 9 -51 49 0 22 7
30 40 43 22 9 70 43 105 76 l64 60 73 0 c44 1 83 6 98 15 38 22 69 19 81 -8z
m206 -79 c6 -7 13 -25 17 -40 5 -24 2 -28 -32 -38 -34 -11 -182 -143 -182
-162 0 -5 9 -8 20 -8 11 0 43 -9 72 -20 59 -22 45 -30 152 75 34 33 70 79 80
103 16 35 24 42 47 42 34 0 61 -35 53 -68 -4 -15 -18 -25 -43 -32 -42 -11
-192 -154 -176 -168 31 -26 85 -62 93 -62 5 0 17 11 26 25 15 22 23 25 79 25
56 0 66 3 89 28 14 15 34 45 45 67 23 51 63 60 88 21 23 -35 11 -62 -32 -77
-20 -6 -55 -29 -78 -50 -37 -35 -47 -38 -105 -41 -82 -4 -85 -16 -22 -86 l47
-53 155 -2 c111 -1 166 2 194 12 38 13 41 13 58 -9 11 -13 18 -35 16 -49 -3
-24 -6 -26 -48 -23 -25 1 -111 5 -192 8 l-147 5 23 -43 c13 -24 32 -65 41 -91
13 -33 26 -52 43 -58 21 -8 23 -13 18 -47 -16 -89 -18 -173 -6 -200 7 -15 34
-46 60 -69 l47 -43 43 37 c23 20 58 61 77 90 36 57 52 64 82 34 28 -28 16 -57
-33 -86 -22 -13 -68 -51 -101 -85 l-59 -60 -67 66 -67 66 -13 -56 c-12 -56
-12 -57 17 -88 76 -81 145 -107 190 -73 27 20 50 19 74 -5 19 -19 19 -22 5
-50 -21 -40 -27 -42 -75 -25 -23 8 -60 15 -81 15 -32 0 -48 8 -87 43 -26 23
-51 48 -55 55 -13 20 -26 14 -40 -21 -8 -17 -35 -63 -61 -102 l-47 -70 25 -21
c40 -35 246 -45 246 -13 0 17 47 9 65 -11 21 -24 14 -60 -15 -78 -18 -11 -25
-11 -45 2 -18 12 -51 16 -131 16 l-106 0 -35 35 c-19 19 -37 35 -39 35 -3 0
-32 -23 -65 -50 -33 -28 -73 -57 -90 -65 -16 -9 -29 -19 -29 -23 0 -14 165
-172 180 -172 36 -1 42 -15 23 -56 -9 -21 -19 -41 -20 -43 -9 -13 -51 21 -56
46 -4 18 -39 61 -95 117 l-90 88 -50 -16 c-28 -10 -86 -23 -129 -30 -61 -11
-69 -14 -37 -15 37 -1 47 -8 123 -86 45 -46 99 -92 119 -102 44 -22 57 -42 48
-76 -4 -19 -13 -27 -29 -27 -30 0 -40 8 -72 60 -34 55 -110 136 -149 161 -28
17 -31 17 -76 -1 -58 -23 -74 -14 -74 39 -1 37 -3 40 -36 46 -19 3 -48 8 -64
11 l-29 6 21 -27 c19 -24 22 -41 22 -116 l0 -89 89 0 c62 0 92 -4 100 -13 6
-8 29 -20 51 -27 60 -20 70 -82 15 -96 -38 -9 -53 1 -66 45 l-12 41 -114 0
-113 0 0 106 0 107 -36 43 c-19 24 -56 56 -81 71 -46 27 -48 27 -237 27 -134
1 -205 -3 -238 -13 -42 -12 -51 -12 -72 2 -20 13 -23 21 -17 49 8 38 33 46 91
30 39 -12 327 -20 322 -9 -1 3 -26 29 -56 57 -52 49 -54 50 -114 50 -35 0 -62
-4 -62 -10 0 -11 -39 -13 -64 -4 -22 9 -20 57 4 79 16 14 25 16 47 7 42 -16
79 -22 86 -15 4 3 -5 27 -20 52 -15 25 -34 65 -43 89 -9 24 -21 43 -26 42 -5
-1 -48 -39 -96 -83 -59 -55 -88 -89 -88 -104 0 -33 -27 -54 -58 -47 -37 9 -44
17 -40 50 2 23 12 33 43 47 37 17 205 172 205 189 0 5 -50 8 -111 8 -86 0
-117 -4 -139 -17 -24 -14 -34 -15 -54 -5 -28 13 -33 36 -14 77 13 29 15 30 61
10 25 -10 72 -15 152 -15 l115 0 0 50 0 50 -53 0 c-52 0 -53 1 -127 75 -41 41
-78 75 -82 75 -14 0 -9 -66 7 -105 20 -46 7 -65 -42 -65 -44 0 -49 17 -29 89
9 31 16 90 16 129 0 40 4 72 8 72 4 0 59 -52 120 -115 94 -96 118 -115 143
-115 32 0 34 4 43 63 4 33 2 37 -17 37 -12 0 -40 21 -69 52 -27 29 -72 67
-100 83 -68 40 -83 63 -62 94 12 16 24 21 47 19 26 -2 33 -9 41 -37 14 -48
116 -151 150 -151 20 0 27 6 32 28 4 15 19 55 34 88 82 184 244 333 428 395
68 23 131 81 153 142 7 19 20 37 29 40 24 6 57 -9 69 -32 13 -23 0 -39 -61
-77 -21 -13 -38 -26 -38 -29 0 -3 40 -5 89 -5 l89 0 81 76 c45 42 81 80 81 85
0 5 7 25 14 44 12 29 20 35 44 35 16 0 34 -6 39 -12z m-806 -55 c16 -44 8 -68
-25 -71 -33 -4 -117 -84 -185 -176 -50 -68 -55 -71 -85 -51 -51 34 -41 65 30
97 51 22 167 143 185 192 11 30 18 36 41 36 22 0 31 -6 39 -27z m48 -197 c7
-8 11 -27 9 -43 -2 -21 -10 -29 -35 -37 -21 -5 -86 -60 -184 -154 l-152 -146
-31 37 c-17 20 -48 43 -68 51 -20 9 -44 26 -52 37 -14 20 -14 25 2 51 23 40
53 37 77 -9 24 -45 63 -93 76 -93 5 0 64 53 131 118 80 78 127 131 139 160 16
36 23 42 47 42 16 0 35 -6 41 -14z m1464 -464 c25 -27 10 -58 -45 -93 -29 -19
-57 -47 -68 -69 -29 -58 -71 -67 -94 -21 -14 27 -14 29 13 55 15 14 33 26 40
26 17 0 59 47 78 87 17 38 50 44 76 15z m-523 -895 c38 -81 60 -94 129 -76 46
11 52 11 71 -6 26 -23 26 -62 1 -70 -11 -3 -50 1 -88 10 -51 12 -77 24 -103
50 -19 18 -52 40 -74 49 -36 15 -38 18 -32 48 16 81 56 79 96 -5z m-858 -111
c33 -28 36 -36 37 -84 1 -29 8 -66 16 -82 17 -33 12 -53 -19 -74 -49 -31 -96
27 -62 76 20 29 20 97 0 126 -14 20 -23 22 -118 22 l-103 0 -16 -40 c-18 -46
-38 -57 -73 -42 -17 8 -24 20 -24 40 0 23 10 34 53 63 l52 34 110 -4 c106 -3
111 -5 147 -35z"/>
<path d="M1620 2570 c0 -22 8 -25 30 -10 13 9 13 11 0 20 -22 15 -30 12 -30
-10z"/>
<path d="M1257 2414 c-8 -8 1 -24 14 -24 5 0 9 7 9 15 0 15 -12 20 -23 9z"/>
<path d="M1837 2485 c-7 -15 1 -25 20 -25 7 0 13 6 13 14 0 19 -27 28 -33 11z"/>
<path d="M2050 2419 c0 -24 23 -21 28 4 2 10 -3 17 -12 17 -10 0 -16 -9 -16
-21z"/>
<path d="M1484 2389 c-3 -6 -2 -15 4 -21 13 -13 32 -2 32 18 0 16 -26 19 -36
3z"/>
<path d="M2266 2293 c-12 -12 -6 -33 9 -33 8 0 15 6 15 14 0 17 -14 28 -24 19z"/>
<path d="M1458 2016 c-123 -44 -168 -130 -168 -321 l0 -115 54 0 54 0 4 113
c3 88 7 119 23 144 27 45 75 66 139 60 43 -4 55 -10 82 -42 19 -21 35 -53 39
-76 l7 -39 55 0 56 0 -6 55 c-17 170 -182 277 -339 221z"/>
<path d="M2480 1965 c0 -8 7 -15 15 -15 8 0 15 7 15 15 0 8 -7 15 -15 15 -8 0
-15 -7 -15 -15z"/>
<path d="M594 1889 c-10 -17 13 -36 27 -22 12 12 4 33 -11 33 -5 0 -12 -5 -16
-11z"/>
<path d="M1430 1645 l0 -65 186 0 c110 0 184 4 182 9 -1 5 -27 35 -56 65 l-54
56 -129 0 -129 0 0 -65z"/>
<path d="M500 1565 c0 -10 7 -15 18 -13 21 4 19 22 -2 26 -10 2 -16 -3 -16
-13z"/>
<path d="M1690 1448 c0 -121 -19 -176 -72 -208 -67 -40 -164 -16 -200 51 -14
27 -18 56 -18 141 0 60 -4 108 -8 108 -4 0 -32 -24 -61 -54 l-54 -55 7 -58
c19 -168 98 -258 236 -270 70 -7 147 17 194 58 18 16 45 56 60 90 24 52 29 79
33 180 l6 119 -62 0 -61 0 0 -102z"/>
<path d="M2550 1515 c0 -8 7 -15 15 -15 8 0 15 7 15 15 0 8 -7 15 -15 15 -8 0
-15 -7 -15 -15z"/>
<path d="M1501 1483 c-22 -27 -21 -54 5 -84 8 -8 14 -27 14 -42 0 -14 5 -29
10 -32 17 -10 40 15 40 42 0 13 7 31 15 39 23 23 19 70 -7 88 -32 23 -54 20
-77 -11z"/>
<path d="M507 1423 c-12 -11 -8 -23 8 -23 8 0 15 7 15 15 0 16 -12 20 -23 8z"/>
<path d="M2477 1204 c-9 -10 2 -24 19 -24 8 0 14 7 14 15 0 15 -21 21 -33 9z"/>
<path d="M590 1150 c0 -5 7 -10 16 -10 8 0 12 5 9 10 -3 6 -10 10 -16 10 -5 0
-9 -4 -9 -10z"/>
<path d="M802 1123 c5 -25 28 -28 28 -4 0 12 -6 21 -16 21 -9 0 -14 -7 -12
-17z"/>
<path d="M2372 998 c7 -19 38 -22 38 -4 0 10 -9 16 -21 16 -12 0 -19 -5 -17
-12z"/>
<path d="M700 956 c0 -8 7 -16 15 -20 10 -4 15 1 15 14 0 11 -7 20 -15 20 -8
0 -15 -6 -15 -14z"/>
<path d="M1516 803 c-11 -11 -6 -23 9 -23 8 0 15 4 15 9 0 13 -16 22 -24 14z"/>
<path d="M2030 674 c0 -17 22 -14 28 4 2 7 -3 12 -12 12 -9 0 -16 -7 -16 -16z"/>
<path d="M1824 589 c-10 -17 13 -36 27 -22 12 12 4 33 -11 33 -5 0 -12 -5 -16
-11z"/>
<path d="M1630 530 c0 -13 5 -18 15 -14 8 4 15 10 15 14 0 4 -7 10 -15 14 -10
4 -15 -1 -15 -14z"/>
<path d="M1036 2453 c-12 -12 -6 -33 9 -33 8 0 15 6 15 14 0 17 -14 28 -24 19z"/>
<path d="M790 2205 c0 -8 9 -15 20 -15 11 0 20 7 20 15 0 8 -9 15 -20 15 -11
0 -20 -7 -20 -15z"/>
<path d="M1074 2239 c-10 -17 13 -36 27 -22 12 12 4 33 -11 33 -5 0 -12 -5
-16 -11z"/>
<path d="M640 2035 c0 -8 7 -15 15 -15 8 0 15 7 15 15 0 8 -7 15 -15 15 -8 0
-15 -7 -15 -15z"/>
<path d="M2557 1783 c-13 -12 -7 -33 8 -33 8 0 15 9 15 20 0 20 -11 26 -23 13z"/>
<path d="M2410 1645 c0 -8 7 -15 15 -15 8 0 15 7 15 15 0 8 -7 15 -15 15 -8 0
-15 -7 -15 -15z"/>
<path d="M2005 919 c-10 -15 3 -25 16 -12 7 7 7 13 1 17 -6 3 -14 1 -17 -5z"/>
<path d="M2220 800 c0 -5 7 -10 16 -10 8 0 12 5 9 10 -3 6 -10 10 -16 10 -5 0
-9 -4 -9 -10z"/>
<path d="M884 749 c-10 -17 13 -36 27 -22 12 12 4 33 -11 33 -5 0 -12 -5 -16
-11z"/>
<path d="M1203 595 c0 -8 9 -15 19 -15 10 0 18 7 18 15 0 8 -8 15 -18 15 -10
0 -19 -7 -19 -15z"/>
<path d="M3670 2441 c-74 -24 -138 -80 -164 -143 -20 -46 -21 -138 -2 -182 24
-58 85 -114 195 -180 102 -62 152 -104 164 -137 3 -9 -2 -30 -10 -47 -32 -65
-150 -69 -277 -8 -41 20 -76 36 -78 36 -2 0 0 -37 4 -82 3 -46 7 -97 7 -114 1
-31 3 -32 74 -50 94 -24 225 -24 294 -1 65 23 135 84 164 144 16 34 22 64 23
117 0 124 -48 184 -234 291 -63 36 -123 75 -132 87 -38 43 -9 100 55 112 39 7
115 -12 184 -47 29 -15 55 -27 58 -27 3 0 5 45 5 99 l0 100 -57 17 c-63 19
-233 28 -273 15z"/>
<path d="M4312 2001 c-122 -247 -222 -452 -222 -455 0 -3 46 -6 103 -6 l102 0
27 63 26 62 182 3 181 2 30 -65 29 -65 106 0 c102 0 105 1 99 21 -13 39 -428
889 -435 889 -4 0 -106 -202 -228 -449z m276 -38 c29 -71 52 -131 52 -135 0
-5 -49 -8 -110 -8 -60 0 -110 3 -110 8 0 13 105 262 111 262 3 0 29 -57 57
-127z"/>
<path d="M5060 1995 l0 -455 95 0 95 0 2 240 3 240 273 -255 c150 -140 277
-255 282 -255 6 0 10 172 10 455 l0 455 -95 0 -95 0 0 -241 0 -240 -26 20
c-14 11 -138 126 -276 256 -137 129 -254 235 -259 235 -5 0 -9 -194 -9 -455z"/>
<path d="M8407 2439 c-113 -26 -239 -125 -291 -227 -62 -122 -72 -281 -26
-404 47 -126 163 -237 289 -275 89 -28 235 -22 341 12 47 15 97 34 113 41 l27
15 0 214 0 215 -185 0 -185 0 0 -90 0 -90 85 0 85 0 0 -65 c0 -62 -1 -65 -27
-72 -55 -15 -156 -8 -203 13 -125 57 -187 205 -146 348 24 83 99 158 180 181
97 28 201 4 289 -66 21 -17 40 -29 42 -28 3 4 25 173 25 196 0 16 -78 56 -149
77 -59 17 -200 20 -264 5z"/>
<path d="M9890 1995 l0 -455 95 0 95 0 2 242 3 241 275 -256 c246 -230 293
-270 291 -244 -1 4 -1 207 -1 452 l0 445 -95 0 -95 0 -2 -240 -3 -240 -270
255 c-148 140 -276 254 -282 255 -10 0 -13 -97 -13 -455z"/>
<path d="M10992 1985 c-122 -245 -222 -450 -222 -455 0 -7 37 -10 102 -8 l103
3 29 63 30 62 182 0 182 0 25 -62 25 -63 111 -3 111 -3 -24 53 c-13 29 -70
148 -126 263 -56 116 -144 297 -195 403 -52 105 -97 192 -102 192 -4 0 -108
-200 -231 -445z m286 80 c16 -14 33 -36 36 -50 8 -30 -17 -93 -39 -101 -10 -4
-15 -20 -15 -51 0 -56 -14 -83 -44 -83 -28 0 -36 16 -36 72 0 31 -7 49 -30 75
-41 46 -41 94 -1 134 38 38 87 39 129 4z"/>
<path d="M5950 1980 l0 -440 105 0 105 0 0 351 0 352 69 -7 c170 -15 257 -90
268 -230 8 -90 -15 -154 -74 -206 -44 -39 -120 -70 -170 -70 -22 0 -23 -2 -23
-96 l0 -95 58 6 c85 10 131 23 196 58 81 43 152 117 190 196 29 62 31 72 31
186 0 109 -2 125 -27 178 -33 70 -111 155 -177 191 -92 50 -185 66 -378 66
l-173 0 0 -440z"/>
<path d="M6840 1980 l0 -440 100 0 100 0 0 185 0 185 175 0 175 0 0 -185 0
-185 100 0 100 0 0 440 0 440 -100 0 -100 0 0 -160 0 -160 -175 0 -175 0 0
160 0 160 -100 0 -100 0 0 -440z"/>
<path d="M7730 1980 l0 -440 105 0 105 0 0 440 0 440 -105 0 -105 0 0 -440z"/>
<path d="M9000 2143 c0 -368 16 -439 114 -538 64 -64 137 -88 261 -89 89 0
107 3 163 29 77 35 142 103 174 183 22 54 23 71 26 375 l3 317 -90 0 -89 0 -4
-292 c-3 -281 -4 -295 -25 -335 -26 -48 -53 -69 -107 -84 -52 -14 -125 4 -159
39 -52 54 -57 90 -57 393 l0 279 -105 0 -105 0 0 -277z"/>
<path d="M2708 2104 c-61 -31 -82 -54 -60 -68 7 -4 150 49 160 59 8 8 -10 45
-21 45 -7 -1 -42 -17 -79 -36z"/>
<path d="M2855 1901 c-100 -27 -141 -42 -143 -53 -2 -9 1 -19 7 -22 5 -4 63 5
128 19 178 38 178 38 178 66 0 13 -6 25 -15 26 -8 1 -78 -15 -155 -36z"/>
<path d="M2795 1777 c-33 -5 -61 -11 -63 -12 -2 -2 2 -56 8 -121 23 -258 -37
-514 -176 -744 -30 -50 -52 -94 -50 -99 8 -12 247 -193 251 -189 28 31 129
204 160 277 51 116 105 279 112 342 6 47 5 47 -28 54 -19 3 -41 8 -50 11 -13
4 -20 -12 -34 -78 -10 -46 -29 -114 -42 -153 -30 -84 -104 -245 -112 -245 -3
0 -12 4 -19 8 -9 6 -3 29 28 94 50 106 94 241 117 355 18 93 26 430 10 486 -8
30 -14 31 -112 14z"/>
<path d="M103 1157 c-24 -6 -43 -17 -43 -24 0 -18 68 -205 78 -215 5 -5 27 -2
51 8 35 14 42 21 38 38 -10 40 -72 206 -77 204 -3 0 -24 -6 -47 -11z"/>
<path d="M2394 676 c-4 -11 20 -44 74 -104 124 -135 139 -147 157 -132 8 7 15
16 15 21 0 10 -216 222 -231 227 -5 2 -12 -3 -15 -12z"/>
<path d="M774 480 l-47 -70 24 -19 c41 -33 165 -101 260 -142 218 -94 489
-131 715 -98 l76 12 -6 39 c-4 21 -11 61 -17 89 l-11 50 -56 -8 c-32 -4 -124
-7 -207 -7 -126 1 -165 5 -246 27 -125 33 -229 77 -339 143 -49 30 -92 54 -95
54 -3 0 -26 -31 -51 -70z"/>
<path d="M2135 230 c-33 -16 -88 -39 -122 -50 -35 -12 -64 -25 -66 -28 -2 -4
2 -28 10 -54 l14 -47 87 31 c104 36 182 74 182 89 0 10 -38 90 -43 88 -1 0
-29 -14 -62 -29z"/>
</g>
</svg>
