<svg width="750" height="500" viewBox="0 0 750 500" fill="none" xmlns="http://www.w3.org/2000/svg">
<path d="M76.69 139.249C76.69 139.249 65.05 143.659 77.8 168.449C90.55 193.239 99.38 205.499 99.38 205.499C99.38 205.499 101.64 211.259 96.79 212.169C91.94 213.079 81.25 211.409 79.11 217.359C76.89 223.529 81.38 229.359 90.47 234.359C99.56 239.359 119.06 251.249 120.82 252.359C122.58 253.469 124.28 256.089 121.08 257.239C117.88 258.389 93.85 260.999 95.76 272.309C97.67 283.619 125.31 293.589 128.31 294.729C131.31 295.869 132.03 297.149 131.79 298.789C131.55 300.429 123.39 300.549 116.59 301.569C109.79 302.589 102.08 304.949 103.73 311.399C105.38 317.849 121.73 331.329 161.49 335.089L180 335.619L190 319.999C209.41 285.149 207.58 263.999 203.2 258.999C198.82 253.999 192.51 258.999 187.82 263.999C183.13 268.999 178.41 275.689 176.92 274.999C175.43 274.309 174.79 272.949 175.55 269.829C176.31 266.709 183.76 238.289 175.55 230.299C167.34 222.309 151.55 240.639 148.79 242.629C146.03 244.619 144.79 241.629 144.91 239.629C145.03 237.629 146.32 214.799 147.3 204.439C148.28 194.079 146.04 187.089 139.7 185.439C133.59 183.839 128.91 193.589 125.41 197.069C121.91 200.549 118.41 195.419 118.41 195.419C118.41 195.419 113.3 181.209 100.1 156.649C86.9 132.089 76.44 139.419 76.44 139.419" fill="#F5F5F5"/>
<path d="M181 339.999C171.38 321.919 154.81 289.519 140.45 261.769C126.09 234.019 113 208.909 103.49 190.799C98.73 181.799 94.86 174.439 92.18 169.349C90.86 166.829 89.83 164.869 89.11 163.519C88.77 162.859 88.51 162.359 88.33 161.989C88.2378 161.82 88.1543 161.646 88.08 161.469C88.08 161.469 88.19 161.629 88.38 161.969L89.21 163.459L92.38 169.249C95.12 174.249 99.04 181.569 103.85 190.609C113.48 208.679 126.56 233.749 140.93 261.489C155.3 289.229 171.8 321.669 181.33 339.789" fill="#E0E0E0"/>
<path d="M94 220.289C94.4437 220.368 94.8789 220.488 95.3 220.649C96.12 220.909 97.3 221.319 98.74 221.839C101.63 222.899 105.59 224.449 109.93 226.239L121 230.869L124.36 232.249C124.785 232.389 125.194 232.573 125.58 232.799C125.138 232.739 124.704 232.625 124.29 232.459C123.47 232.199 122.29 231.779 120.85 231.249C117.97 230.169 114.03 228.559 109.69 226.769L98.57 222.219L95.2 220.859C94.7797 220.715 94.3771 220.524 94 220.289Z" fill="#E0E0E0"/>
<path d="M126.83 231.619C126.69 231.559 129.53 223.259 133.18 213.069C136.83 202.879 139.92 194.669 140.07 194.719C140.22 194.769 137.38 203.079 133.72 213.269C130.06 223.459 127 231.669 126.83 231.619Z" fill="#E0E0E0"/>
<path d="M147 275.222C147.206 274.811 147.457 274.425 147.75 274.072L149.94 271.072C151.77 268.532 154.3 265.012 156.94 261.022C159.58 257.032 161.87 253.352 163.5 250.672L165.43 247.492C165.648 247.089 165.903 246.708 166.19 246.352C166.056 246.792 165.865 247.212 165.62 247.602C165.22 248.382 164.62 249.502 163.85 250.872C162.31 253.612 160.08 257.342 157.42 261.342C154.76 265.342 152.19 268.832 150.26 271.342C149.26 272.572 148.5 273.572 147.93 274.242C147.656 274.601 147.344 274.929 147 275.222Z" fill="#E0E0E0"/>
<path d="M115 271.521C115.418 271.467 115.842 271.467 116.26 271.521L119.69 271.781C122.58 272.031 126.57 272.411 130.97 272.861C135.37 273.311 139.36 273.751 142.24 274.101L145.65 274.541C146.071 274.573 146.487 274.653 146.89 274.781C146.471 274.829 146.049 274.829 145.63 274.781L142.2 274.521C139.31 274.271 135.32 273.891 130.91 273.441C126.5 272.991 122.53 272.551 119.65 272.201L116.24 271.761C115.819 271.731 115.402 271.651 115 271.521Z" fill="#E0E0E0"/>
<path d="M127.89 312.259C128.426 312.211 128.964 312.211 129.5 312.259L133.9 312.579C137.6 312.869 142.72 313.319 148.37 313.839C154.02 314.359 159.13 314.839 162.83 315.269L167.21 315.769C167.75 315.806 168.286 315.893 168.81 316.029C168.271 316.081 167.729 316.081 167.19 316.029L162.79 315.709C159.09 315.419 153.97 314.969 148.32 314.439C142.67 313.909 137.56 313.439 133.86 313.009L129.48 312.519C128.943 312.481 128.411 312.394 127.89 312.259Z" fill="#E0E0E0"/>
<path d="M167.85 315.711C168.112 315.193 168.417 314.698 168.76 314.231L171.39 310.321C173.61 307.011 176.66 302.431 179.88 297.321C183.1 292.211 185.88 287.441 187.88 284.001C188.88 282.351 189.64 281.001 190.26 279.921C190.525 279.409 190.833 278.921 191.18 278.461C190.99 279.008 190.746 279.534 190.45 280.031C189.95 281.031 189.2 282.451 188.24 284.201C186.32 287.691 183.58 292.471 180.34 297.631C177.1 302.791 174.01 307.341 171.71 310.631C170.55 312.251 169.6 313.551 168.93 314.441C168.606 314.894 168.245 315.319 167.85 315.711Z" fill="#E0E0E0"/>
<path d="M523.71 373.821C497.03 356.391 490.05 322.711 490.14 292.241C490.14 287.161 489.43 281.821 491.7 277.291C493.97 272.761 499.53 269.531 504.14 271.531C507.97 273.191 509.75 277.531 511.98 281.091C514.948 285.844 519.203 289.658 524.25 292.091C527.53 293.671 531.57 294.571 534.71 292.711C539.01 290.161 539.34 284.091 539.15 279.031L538.15 250.791C537.96 245.731 537.78 240.581 539.21 235.731C540.64 230.881 543.96 226.321 548.73 224.831C553.5 223.341 559.52 225.921 560.73 230.831C561.22 232.831 560.87 235.031 561.07 237.121C561.27 239.211 562.33 241.501 564.34 242.031C566.35 242.561 568.34 241.031 569.81 239.531C574.87 234.271 578.2 227.591 581.31 220.951C584.42 214.311 587.42 207.521 591.97 201.811C596.52 196.101 602.97 191.481 610.17 190.811C617.37 190.141 625.24 194.401 627.29 201.441C629.34 208.481 625.41 215.871 621.07 221.781C614.625 230.541 606.949 238.325 598.28 244.891C596.72 246.071 595.04 247.351 594.49 249.241C593.49 252.641 596.79 255.891 600.15 256.891C603.95 258.031 608.03 257.511 611.98 257.891C615.93 258.271 620.26 259.891 621.87 263.521C624.1 268.621 619.95 274.161 615.81 277.841C607.515 285.211 598.013 291.097 587.72 295.241C584.05 296.711 580.17 298.031 577.26 300.731C574.35 303.431 572.67 308.041 574.6 311.541C576.53 315.041 581.2 316.041 585.07 315.201C588.94 314.361 592.36 312.131 596.07 310.621C602.93 307.781 611.91 307.981 616.55 313.841C619.6 317.701 620.02 323.181 618.69 327.931C617.36 332.681 614.49 336.821 611.42 340.651C600.7 354.061 586.78 365.011 570.84 371.101C554.9 377.191 540.03 379.161 523.84 373.811" fill="#F5F5F5"/>
<path d="M531 354.489C535 338.989 540.8 322.369 547.46 305.189C549.14 300.896 550.807 296.659 552.46 292.479C554.11 288.319 555.74 284.189 557.58 280.239C561.134 272.691 565.103 265.347 569.47 258.239C573.59 251.409 577.75 245.079 581.68 239.239C585.61 233.399 589.41 227.939 593.07 223.149C598.803 215.563 605.13 208.444 611.99 201.859C614.42 199.529 616.35 197.789 617.68 196.619L619.2 195.299C619.368 195.144 619.549 195.004 619.74 194.879C619.597 195.058 619.44 195.225 619.27 195.379L617.81 196.759C616.52 197.969 614.62 199.759 612.24 202.129C605.495 208.794 599.26 215.958 593.59 223.559C589.98 228.359 586.23 233.779 582.32 239.679C578.41 245.579 574.32 251.919 570.2 258.739C565.872 265.853 561.933 273.198 558.4 280.739C556.58 284.659 554.97 288.739 553.32 292.929C551.67 297.119 550.03 301.339 548.32 305.629C541.67 322.799 535.86 339.369 531.83 354.809" fill="#E0E0E0"/>
<path d="M557.78 280.2C557.523 279.507 557.335 278.79 557.22 278.06C556.91 276.67 556.53 274.65 556.1 272.14C555.23 267.14 554.26 260.14 553.23 252.5C552.2 244.86 551.13 237.9 550.18 232.92C549.72 230.42 549.32 228.41 549.03 227.02C548.826 226.31 548.708 225.578 548.68 224.84C548.985 225.514 549.22 226.218 549.38 226.94C549.78 228.3 550.28 230.3 550.82 232.78C551.94 237.78 553.11 244.69 554.15 252.37C555.19 260.05 556.06 266.8 556.75 272.04C557.083 274.413 557.36 276.413 557.58 278.04C557.729 278.75 557.796 279.475 557.78 280.2Z" fill="#E0E0E0"/>
<path d="M622.37 265.999C621.524 266.206 620.66 266.337 619.79 266.389C618.13 266.589 615.72 266.869 612.79 267.299C606.86 268.129 598.71 269.559 589.79 271.529C580.87 273.499 572.87 275.659 567.13 277.379C564.25 278.219 561.94 278.959 560.34 279.459C559.524 279.772 558.68 280.007 557.82 280.159C558.587 279.738 559.39 279.387 560.22 279.109C561.79 278.499 564.07 277.659 566.93 276.739C572.64 274.859 580.64 272.609 589.59 270.609C597.227 268.884 604.947 267.549 612.72 266.609C615.72 266.259 618.12 266.079 619.8 265.989C620.655 265.912 621.516 265.915 622.37 265.999Z" fill="#E0E0E0"/>
<path d="M531.73 353.271C531.535 353.037 531.376 352.773 531.26 352.491L530.08 350.181C529.08 348.181 527.66 345.181 525.98 341.531C522.61 334.191 518.28 323.901 513.66 312.531C509.04 301.161 504.8 290.781 501.59 283.381L497.77 274.621L496.77 272.231C496.634 271.958 496.534 271.669 496.47 271.371C496.665 271.606 496.824 271.869 496.94 272.151C497.26 272.771 497.65 273.541 498.13 274.461C499.13 276.461 500.54 279.461 502.22 283.101C505.59 290.451 509.92 300.741 514.55 312.171C519.18 323.601 523.4 333.911 526.61 341.311L530.4 350.001L531.4 352.391C531.554 352.666 531.665 352.963 531.73 353.271Z" fill="#E0E0E0"/>
<path d="M617.19 322.762C616.928 322.925 616.645 323.052 616.35 323.142L613.87 324.062L604.72 327.342C596.99 330.122 586.36 334.072 574.62 338.462C562.88 342.852 552.21 346.712 544.42 349.322C540.53 350.632 537.42 351.662 535.17 352.322L532.63 353.072C532.34 353.178 532.037 353.245 531.73 353.272C531.995 353.108 532.281 352.98 532.58 352.892L535.06 351.972L544.21 348.692C551.93 345.922 562.56 341.962 574.3 337.582C586.04 333.202 596.72 329.332 604.5 326.722C608.39 325.412 611.5 324.382 613.75 323.722L616.29 322.972C616.579 322.862 616.882 322.792 617.19 322.762Z" fill="#E0E0E0"/>
<path d="M151.6 97.5489C152.4 91.6889 144.14 86.8689 137.92 86.3689C134.92 86.1289 131.92 86.5889 129.08 85.6089C123 83.4889 120.57 75.6089 114.64 73.1289C110.2 71.2589 105.09 72.9289 100.79 75.1289C96.49 77.3289 92.24 79.9989 87.44 80.2789C83.26 80.5489 78.72 78.9989 75.06 81.0389C72.34 82.5689 70.91 85.6989 68.4 87.5589C65.89 89.4189 62.74 89.7489 59.69 89.9189C56.64 90.0889 53.49 90.1089 50.69 91.3889C47.89 92.6689 45.62 95.5889 46.2 98.5889L151.6 97.5489Z" fill="#EBEBEB"/>
<path d="M564.83 151.221C565.67 145.161 557.11 140.221 550.68 139.661C547.62 139.411 544.43 139.881 541.53 138.871C535.24 136.671 532.73 128.551 526.59 125.961C522 124.021 516.71 125.741 512.26 127.961C507.81 130.181 503.42 133.021 498.44 133.341C494.12 133.621 489.44 132.011 485.64 134.131C482.82 135.701 481.35 138.951 478.75 140.861C476.15 142.771 472.89 143.141 469.75 143.311C466.61 143.481 463.33 143.511 460.45 144.831C457.57 146.151 455.21 149.181 455.8 152.281L564.83 151.221Z" fill="#F5F5F5"/>
<path d="M693.15 177.83C693.66 174.1 688.4 171.03 684.44 170.71C682.55 170.56 680.59 170.85 678.8 170.22C674.93 168.87 673.38 163.87 669.6 162.27C666.78 161.08 663.52 162.14 660.78 163.52C658.04 164.9 655.34 166.64 652.27 166.83C649.61 167 646.72 166.01 644.39 167.32C642.66 168.32 641.75 170.32 640.15 171.46C638.488 172.499 636.56 173.034 634.6 173C632.652 172.946 630.711 173.261 628.88 173.93C627.11 174.74 625.64 176.61 626.01 178.52L693.15 177.83Z" fill="#F5F5F5"/>
<path d="M673.9 92.5402C674.84 85.7502 665.25 80.1602 658.05 79.5402C654.62 79.2602 651.05 79.7902 647.79 78.6502C640.79 76.2002 637.93 67.0902 631.05 64.1902C625.91 62.0602 620 64.0002 615 66.5002C610 69.0002 605.09 72.1702 599.52 72.5002C594.67 72.8102 589.41 71.0202 585.17 73.3802C582.01 75.1502 580.36 78.7902 577.45 80.9302C574.54 83.0702 570.88 83.4802 567.35 83.6702C563.82 83.8602 560.15 83.9002 556.94 85.3702C553.73 86.8402 551.06 90.2502 551.72 93.7302L673.9 92.5402Z" fill="#EBEBEB"/>
<path d="M279.69 117.48C282.44 116.3 285.38 118.81 286.88 121.4C288.38 123.99 289.59 127.12 292.33 128.32C294.46 129.25 296.91 128.72 299.24 128.81C306.39 129.09 311.93 135.26 315.14 141.66C317.14 145.66 318.6 150.25 317.27 154.5C316.1 158.24 312.95 161.02 309.67 163.16C303.079 167.569 295.265 169.788 287.34 169.5C283.401 169.32 279.541 168.335 275.998 166.604C272.454 164.874 269.304 162.436 266.74 159.44C262.89 154.72 260.84 148.75 259.95 142.73C259.06 136.71 259.26 130.59 259.46 124.51" fill="#263238"/>
<path d="M310.63 148.998C310.58 148.998 310.63 148.348 310.51 147.218C310.342 145.612 309.892 144.048 309.18 142.598C308.134 140.45 306.587 138.584 304.67 137.158C302.302 135.427 299.563 134.273 296.67 133.788C293.62 133.238 290.58 133.518 287.85 132.938C285.444 132.411 283.219 131.259 281.4 129.598C280.181 128.503 279.087 127.275 278.14 125.938C277.81 125.468 277.56 125.098 277.4 124.828C277.314 124.699 277.24 124.561 277.18 124.418C277.579 124.863 277.953 125.331 278.3 125.818C279.299 127.089 280.417 128.261 281.64 129.318C283.433 130.9 285.608 131.986 287.95 132.468C290.58 133.008 293.61 132.718 296.76 133.278C299.727 133.773 302.533 134.974 304.94 136.778C306.901 138.262 308.467 140.206 309.5 142.438C310.193 143.936 310.6 145.55 310.7 147.198C310.733 147.641 310.733 148.085 310.7 148.528C310.7 148.687 310.676 148.846 310.63 148.998Z" fill="#455A64"/>
<path d="M338.46 135.93L327.93 175.35L306.55 152.35C296.711 145.92 285.089 142.769 273.35 143.35L240.09 141.8L221.73 148.41C217.308 150.016 213.066 152.077 209.07 154.56L173.29 179.25C165.72 184.72 159.5 188.9 158.04 197.25C156.12 208.25 161.69 220.58 173.28 222.62L223.89 223.23L225.45 255.23L305 247.83L302.87 199.54C319.11 212.05 326.74 216.92 338.96 214.54C343.03 213.75 348.85 209.47 350.74 203.13C357.49 180.53 358.64 144.98 358.64 144.98L338.46 135.93ZM213.7 192.5L218.32 191.19L218.61 192.86L213.7 192.5Z" fill="#368AC8"/>
<path d="M172.53 222.64H172.96H174.21H179.04L196.82 222.59H255.69L255.43 222.84C255.43 222.26 255.49 221.64 255.52 221.02C255.89 213.07 256.25 205.38 256.58 198.23L256.81 198.5C238.9 196.83 223.55 194.25 212.6 192.86C207.12 192.14 202.74 191.66 199.74 191.31L196.3 190.93L195.41 190.82L195.11 190.77H195.42L196.31 190.84L199.76 191.14C202.76 191.43 207.15 191.87 212.64 192.55C223.64 193.85 238.96 196.36 256.85 198H257.09V198.24C256.76 205.38 256.41 213.08 256.09 221.03C256.09 221.65 256.03 222.27 256 222.84V223.09H255.75L196.88 222.89L179 222.76L174.17 222.7H172.92C172.789 222.69 172.658 222.67 172.53 222.64Z" fill="#263238"/>
<path d="M173.55 188.451C173.798 188.278 174.071 188.143 174.36 188.051C175.121 187.74 175.903 187.483 176.7 187.281C182.026 185.918 187.662 186.485 192.61 188.881C193.352 189.235 194.068 189.642 194.75 190.101C195.014 190.25 195.257 190.435 195.47 190.651C195.41 190.731 194.34 190.031 192.47 189.211C187.538 187.055 182.052 186.505 176.79 187.641C174.78 188.071 173.58 188.541 173.55 188.451Z" fill="#263238"/>
<path d="M184.56 179.258C185.332 179.552 186.065 179.941 186.74 180.418C188.421 181.472 190.022 182.649 191.53 183.938C193.27 185.448 194.87 186.938 195.53 188.368C195.808 188.927 195.948 189.544 195.94 190.168C195.948 190.397 195.897 190.625 195.79 190.828C195.776 190.03 195.577 189.246 195.21 188.538C194.115 186.928 192.764 185.51 191.21 184.338C189.46 182.838 187.78 181.598 186.55 180.728C185.846 180.296 185.18 179.804 184.56 179.258Z" fill="#263238"/>
<path d="M219 193.048C218.616 192.031 218.315 190.984 218.1 189.918C217.6 187.978 216.94 185.288 216.1 182.348C215.26 179.408 214.44 176.768 213.75 174.888C213.06 173.008 212.6 171.888 212.67 171.828C212.858 172.057 213.01 172.313 213.12 172.588C213.38 173.088 213.71 173.828 214.12 174.758C215.097 177.191 215.932 179.678 216.62 182.208C217.43 185.208 218.03 187.878 218.44 189.838C218.714 190.891 218.901 191.965 219 193.048Z" fill="#263238"/>
<path d="M303.9 221.94C303.76 221.94 303.19 209.94 302.62 195.11C302.05 180.28 301.71 168.25 301.86 168.25C302.01 168.25 302.58 180.25 303.14 195.09C303.7 209.93 304.05 221.94 303.9 221.94Z" fill="#263238"/>
<g opacity="0.3">
<path opacity="0.3" d="M302.29 173.758C303.12 178.918 305.29 183.758 307.08 188.668C308.87 193.578 310.08 198.928 309.02 204.038L303.02 199.228" fill="black"/>
</g>
<path d="M333.15 196.53C332.963 196.302 332.808 196.05 332.69 195.78C332.42 195.28 332.08 194.54 331.69 193.61C329.623 188.749 328.376 183.579 328 178.31C327.93 177.31 327.91 176.48 327.92 175.92C327.905 175.611 327.932 175.302 328 175C328.193 176.071 328.323 177.153 328.39 178.24C328.946 183.449 330.159 188.566 332 193.47C332.72 195.35 333.22 196.49 333.15 196.53Z" fill="#263238"/>
<path opacity="0.3" d="M214.08 175.102L215.37 192.032L218.32 191.192L214.08 175.102Z" fill="black"/>
<path d="M300.47 175.001C300.378 174.979 300.29 174.942 300.21 174.891L299.46 174.531C298.506 174.074 297.52 173.686 296.51 173.371C292.794 172.193 288.836 171.993 285.02 172.791C282.404 173.374 279.903 174.387 277.62 175.791C275.13 177.251 272.62 179.111 269.9 180.921C267.079 182.911 263.931 184.393 260.6 185.301C257.002 186.2 253.259 186.353 249.6 185.751C247.748 185.425 245.931 184.93 244.17 184.271C242.469 183.602 240.838 182.768 239.3 181.781C237.825 180.811 236.451 179.696 235.2 178.451C234.019 177.253 232.92 175.977 231.91 174.631C229.91 172.011 228.24 169.401 226.52 167.061C224.984 164.854 223.187 162.839 221.17 161.061C219.491 159.626 217.598 158.462 215.56 157.611C214.018 156.972 212.377 156.603 210.71 156.521C209.287 156.489 207.868 156.692 206.51 157.121L206.77 157.011L207.55 156.741C207.9 156.631 208.35 156.551 208.87 156.441C209.483 156.355 210.101 156.315 210.72 156.321C212.414 156.353 214.087 156.691 215.66 157.321C217.746 158.157 219.687 159.318 221.41 160.761C223.469 162.527 225.299 164.542 226.86 166.761C228.61 169.091 230.3 171.701 232.29 174.281C233.293 175.607 234.382 176.867 235.55 178.051C236.773 179.264 238.113 180.352 239.55 181.301C241.061 182.266 242.662 183.083 244.33 183.741C246.06 184.391 247.848 184.873 249.67 185.181C253.265 185.779 256.944 185.632 260.48 184.751C263.762 183.864 266.865 182.412 269.65 180.461C272.38 178.681 274.88 176.831 277.42 175.361C279.748 173.946 282.297 172.932 284.96 172.361C288.835 171.581 292.847 171.84 296.59 173.111C297.598 173.451 298.577 173.869 299.52 174.361L300.24 174.771L300.47 175.001Z" fill="#FAFAFA"/>
<path d="M320 166.828C320.095 167.231 320.132 167.645 320.11 168.058C320.128 169.191 320.034 170.323 319.83 171.438C319.529 173.095 318.993 174.702 318.24 176.208C317.316 178.041 316.211 179.776 314.94 181.388C312.616 184.336 309.647 186.71 306.26 188.328C305.244 188.814 304.19 189.218 303.11 189.538C302.719 189.677 302.313 189.767 301.9 189.808C301.9 189.708 303.58 189.278 306.1 187.998C309.373 186.316 312.247 183.953 314.53 181.068C315.781 179.482 316.879 177.781 317.81 175.988C318.565 174.528 319.124 172.975 319.47 171.368C319.732 169.866 319.909 168.35 320 166.828Z" fill="#FAFAFA"/>
<path d="M332.1 214.558C332.1 214.558 331.96 214.508 331.72 214.348C331.372 214.134 331.038 213.897 330.72 213.638C329.5 212.692 328.419 211.577 327.51 210.328C324.558 206.134 322.982 201.127 323 195.998C323.104 190.923 323.978 185.892 325.59 181.078C326.16 179.218 326.67 177.738 327.03 176.718C327.199 176.181 327.406 175.656 327.65 175.148C327.55 175.701 327.409 176.246 327.23 176.778C326.9 177.908 326.46 179.388 325.94 181.178C324.446 185.981 323.631 190.97 323.52 195.998C323.497 201.034 324.98 205.962 327.78 210.148C329.011 211.81 330.465 213.294 332.1 214.558Z" fill="#FAFAFA"/>
<path d="M355.68 169.77C355.368 169.986 355.033 170.163 354.68 170.3C354.04 170.6 353.11 171.01 351.93 171.45C348.839 172.63 345.546 173.187 342.24 173.09C338.901 172.961 335.682 171.809 333.02 169.79C332.229 169.176 331.523 168.46 330.92 167.66C330.68 167.382 330.485 167.068 330.34 166.73C331.217 167.747 332.191 168.675 333.25 169.5C335.891 171.37 339.017 172.436 342.25 172.57C345.496 172.657 348.73 172.159 351.8 171.1C354.22 170.32 355.64 169.69 355.68 169.77Z" fill="#FAFAFA"/>
<path d="M206.89 191.849C206.8 191.849 206.4 190.289 205.47 187.849C203.043 181.42 199.182 175.63 194.18 170.919C192.27 169.119 190.97 168.129 191.02 168.059C191.379 168.221 191.715 168.429 192.02 168.679C192.869 169.3 193.684 169.968 194.46 170.679C199.658 175.296 203.577 181.175 205.84 187.749C206.186 188.733 206.479 189.734 206.72 190.749C206.82 191.107 206.877 191.477 206.89 191.849Z" fill="#FAFAFA"/>
<path d="M218.57 193.571C218.51 193.76 218.422 193.938 218.31 194.101C218.029 194.597 217.711 195.072 217.36 195.521C216.029 197.171 214.375 198.532 212.5 199.521C209.729 200.957 206.744 201.934 203.66 202.411C200.21 203.001 196.36 203.241 192.41 203.881C190.486 204.178 188.592 204.643 186.75 205.271C185.046 205.877 183.418 206.679 181.9 207.661C179.328 209.337 177.09 211.477 175.3 213.971C174.107 215.668 173.126 217.505 172.38 219.441C171.84 220.811 171.67 221.611 171.61 221.591C171.621 221.394 171.658 221.199 171.72 221.011C171.838 220.454 171.995 219.906 172.19 219.371C172.872 217.384 173.817 215.497 175 213.761C176.776 211.189 179.03 208.982 181.64 207.261C183.183 206.245 184.841 205.415 186.58 204.791C188.448 204.148 190.369 203.67 192.32 203.361C196.32 202.721 200.16 202.501 203.58 201.941C206.622 201.49 209.574 200.565 212.33 199.201C214.18 198.268 215.833 196.988 217.2 195.431C218.14 194.271 218.52 193.541 218.57 193.571Z" fill="#FAFAFA"/>
<path d="M239.92 196.32C240.079 196.637 240.197 196.973 240.27 197.32C240.532 198.232 240.729 199.161 240.86 200.1C241.055 201.498 241.139 202.909 241.11 204.32C241.041 207.786 240.29 211.205 238.9 214.38C238.339 215.674 237.67 216.919 236.9 218.1C236.387 218.899 235.819 219.661 235.2 220.38C234.75 220.88 234.5 221.15 234.47 221.12C234.44 221.09 235.36 219.94 236.59 217.91C237.297 216.714 237.922 215.471 238.46 214.19C239.1 212.621 239.612 211.002 239.99 209.35C240.343 207.688 240.557 205.998 240.63 204.3C240.685 202.915 240.638 201.528 240.49 200.15C240.23 197.77 239.82 196.34 239.92 196.32Z" fill="#FAFAFA"/>
<path d="M302.24 211.481C300.089 210.563 297.831 209.918 295.52 209.561C293.184 209.369 290.833 209.463 288.52 209.841C289.144 209.517 289.822 209.307 290.52 209.221C293.869 208.578 297.335 208.991 300.44 210.401C301.1 210.65 301.71 211.016 302.24 211.481Z" fill="#FAFAFA"/>
<path d="M348.88 111.121L338.82 136.101L357.75 144.581L362.61 123.341L348.88 111.121Z" fill="#FFBE9D"/>
<path d="M370.6 135.78L353.6 114.68C350.17 109.94 344.71 102.31 344.46 101.68C344.11 100.68 343.98 93.86 344.14 92.13C344.132 89.91 343.988 87.6925 343.71 85.49L329.71 90.8L326.72 80L324.8 80.6C324.8 80.6 319.73 89.37 321.3 94.36C322.87 99.35 329.5 101.61 331.14 102.62C332.78 103.63 339.01 106.31 346.04 116.92L347.17 118.56L350.02 122.68L363.02 141.38C363.377 141.91 363.838 142.363 364.375 142.71C364.912 143.057 365.513 143.292 366.143 143.4C366.773 143.508 367.419 143.488 368.041 143.339C368.663 143.191 369.248 142.918 369.762 142.537C370.275 142.157 370.706 141.676 371.028 141.123C371.351 140.571 371.558 139.96 371.637 139.325C371.716 138.691 371.666 138.047 371.49 137.432C371.313 136.818 371.014 136.246 370.61 135.75L370.6 135.78Z" fill="#455A64"/>
<path d="M337.21 87.9102L333.55 77.5901L334.87 77.1602C334.87 77.1602 341.33 81.1602 342.72 85.8202L337.21 87.9102Z" fill="#455A64"/>
<path d="M333.3 101.539L333.46 101.469L333.9 101.269L335.55 100.529L341.55 97.8089L341.4 97.7189C341.365 98.3284 341.365 98.9394 341.4 99.5489C341.411 100.238 341.561 100.918 341.84 101.549C342.53 102.729 343.37 103.889 344.23 105.129C345.96 107.579 347.88 110.239 349.91 112.999C350.202 113.328 350.402 113.728 350.49 114.159C350.537 114.469 350.508 114.786 350.406 115.083C350.303 115.38 350.131 115.648 349.903 115.864C349.676 116.08 349.399 116.237 349.097 116.324C348.796 116.41 348.477 116.422 348.17 116.359C347.784 116.271 347.434 116.065 347.17 115.769C346.92 115.459 346.67 115.089 346.42 114.769L344.95 112.769L339.88 105.929C339.525 105.463 339.104 105.052 338.63 104.709C338.19 104.379 337.76 104.099 337.36 103.829C336.55 103.309 335.83 102.889 335.24 102.559C334.65 102.229 334.18 101.979 333.87 101.809L333.5 101.629H333.37C333.37 101.629 333.37 101.629 333.49 101.699L333.84 101.909L335.18 102.699C335.77 103.049 336.47 103.479 337.27 104.009C337.67 104.279 338.1 104.569 338.52 104.899C338.983 105.234 339.391 105.638 339.73 106.099L344.73 112.969L346.19 114.969C346.44 115.309 346.67 115.639 346.95 115.969C347.265 116.308 347.677 116.542 348.13 116.639C348.48 116.712 348.843 116.7 349.187 116.602C349.532 116.505 349.847 116.326 350.108 116.081C350.368 115.835 350.565 115.53 350.682 115.192C350.799 114.854 350.833 114.493 350.78 114.139C350.684 113.665 350.467 113.224 350.15 112.859C348.15 110.099 346.15 107.449 344.45 104.999C343.6 103.769 342.74 102.599 342.07 101.459C341.81 100.875 341.664 100.247 341.64 99.6089C341.6 99.0062 341.6 98.4016 341.64 97.7989V97.6289L341.49 97.6989L335.49 100.559L333.89 101.339L333.48 101.539H333.3Z" fill="#263238"/>
<g opacity="0.3">
<path opacity="0.3" d="M332 96.5102L338.29 94.1802L338.25 90.6602L331.9 93.0802L332 96.5102Z" fill="black"/>
</g>
<path d="M336.91 90.4492C336.652 91.29 336.567 92.1746 336.66 93.0492C336.585 93.9239 336.687 94.8048 336.96 95.6392C337.225 94.7998 337.31 93.9138 337.21 93.0392C337.285 92.1645 337.183 91.2836 336.91 90.4492Z" fill="#263238"/>
<path d="M335 91.1484C334.743 91.9896 334.661 92.8745 334.76 93.7484C334.679 94.6232 334.781 95.5053 335.06 96.3384C335.319 95.4977 335.401 94.6124 335.3 93.7384C335.381 92.8636 335.279 91.9815 335 91.1484Z" fill="#263238"/>
<path d="M333.18 91.5977C332.921 92.4383 332.835 93.323 332.93 94.1977C332.855 95.0724 332.957 95.9533 333.23 96.7877C333.488 95.9468 333.573 95.0623 333.48 94.1877C333.555 93.3129 333.453 92.432 333.18 91.5977Z" fill="#263238"/>
<path d="M339.47 134.488L340.15 129.598L340.61 116.598L340.11 107.508C340.11 107.508 343.11 107.738 344.78 111.658C346.45 115.578 346.48 121.568 346.48 121.568C346.48 121.568 359.18 126.568 354.7 138.568" fill="#FFBE9D"/>
<path d="M356.66 114.66C356.774 113.647 356.572 112.623 356.08 111.73C355.752 111.26 355.333 110.862 354.846 110.559C354.36 110.256 353.817 110.056 353.25 109.97C352.226 109.77 351.174 109.77 350.15 109.97L352.54 113.3C352.057 115.305 351.703 117.34 351.48 119.39C351.35 120.44 351.36 121.75 352.27 122.29C352.665 122.467 353.106 122.511 353.528 122.415C353.95 122.319 354.33 122.09 354.61 121.76C355.146 121.07 355.515 120.266 355.69 119.41C356.19 117.868 356.515 116.275 356.66 114.66Z" fill="#FFBE9D"/>
<path d="M360.25 118.509C360.355 117.496 360.153 116.475 359.67 115.579C359.341 115.107 358.92 114.708 358.432 114.406C357.943 114.103 357.398 113.903 356.83 113.819C355.81 113.618 354.76 113.618 353.74 113.819L356.12 117.149C355.641 119.155 355.287 121.189 355.06 123.239C354.94 124.239 354.94 125.599 355.86 126.139C356.255 126.315 356.696 126.359 357.118 126.263C357.54 126.168 357.92 125.938 358.2 125.609C358.733 124.918 359.099 124.114 359.27 123.259C359.773 121.717 360.102 120.124 360.25 118.509Z" fill="#FFBE9D"/>
<path d="M364 122.311C364.112 121.295 363.909 120.269 363.42 119.371C363.092 118.901 362.673 118.503 362.186 118.2C361.7 117.897 361.156 117.697 360.59 117.611C359.565 117.421 358.515 117.421 357.49 117.611L359.88 120.941C359.397 122.946 359.043 124.981 358.82 127.031C358.69 128.091 358.7 129.391 359.61 129.941C360.006 130.117 360.448 130.159 360.87 130.062C361.292 129.964 361.671 129.732 361.95 129.401C362.48 128.693 362.839 127.871 363 127.001C363.506 125.48 363.841 123.907 364 122.311Z" fill="#FFBE9D"/>
<path d="M356.4 112.309C356.822 113.751 356.888 115.275 356.59 116.749C356.462 118.244 355.979 119.688 355.18 120.959C355.03 120.899 355.75 119.059 356.08 116.669C356.41 114.279 356.25 112.329 356.4 112.309Z" fill="#EB996E"/>
<path d="M360.24 117.531C360.52 118.821 360.523 120.156 360.249 121.447C359.975 122.738 359.43 123.956 358.65 125.021C358.51 124.941 359.32 123.401 359.74 121.341C360.16 119.281 360.08 117.541 360.24 117.531Z" fill="#EB996E"/>
<path d="M345 112.309C345.251 113.166 345.435 114.042 345.55 114.929C345.84 116.579 346.23 118.929 346.67 121.699L346.51 121.499C348.389 122.15 350.103 123.203 351.533 124.584C352.963 125.966 354.075 127.643 354.79 129.499C355.4 131.025 355.738 132.646 355.79 134.289C355.819 135.39 355.715 136.492 355.48 137.569C355.425 137.97 355.31 138.361 355.14 138.729C355.354 137.265 355.448 135.787 355.42 134.309C355.32 132.716 354.955 131.151 354.34 129.679C353.609 127.87 352.497 126.24 351.08 124.899C349.723 123.603 348.108 122.608 346.34 121.979H346.2V121.839C345.8 119.069 345.48 116.709 345.27 115.039C345.115 114.136 345.024 113.224 345 112.309Z" fill="#EB996E"/>
<path d="M343.68 85.4609L343.46 85.5509L342.82 85.7909L340.46 86.6709L332.7 89.6709L324.95 92.6709L322.59 93.5509L321.94 93.7809C321.8 93.8409 321.72 93.8609 321.72 93.8509L321.93 93.7509L322.56 93.4809L324.89 92.4809C326.89 91.6909 329.6 90.6109 332.62 89.4809C335.64 88.3509 338.4 87.2909 340.41 86.5809C341.41 86.2309 342.22 85.9509 342.79 85.7709L343.44 85.5609C343.514 85.5146 343.595 85.4808 343.68 85.4609Z" fill="#263238"/>
<path d="M256.83 201.819C256.83 201.819 269.29 198.409 271.42 198.329C273.05 198.279 282.5 199.879 286.85 200.629C287.665 200.751 288.4 201.186 288.899 201.841C289.397 202.497 289.62 203.322 289.52 204.139C289.499 204.241 289.473 204.341 289.44 204.439C289.251 204.939 288.926 205.376 288.502 205.701C288.078 206.026 287.572 206.226 287.04 206.279C287.668 206.592 288.182 207.094 288.509 207.715C288.836 208.336 288.959 209.044 288.86 209.739C288.52 212.199 285.47 212.269 285.47 212.269C285.47 212.269 285.62 212.429 285.83 212.709C286.132 213.14 286.315 213.643 286.362 214.167C286.408 214.692 286.316 215.219 286.094 215.696C285.872 216.173 285.528 216.584 285.098 216.886C284.667 217.189 284.164 217.372 283.64 217.419L282.25 217.519C282.714 217.798 283.092 218.199 283.343 218.679C283.594 219.159 283.707 219.699 283.67 220.239C283.13 223.469 275.75 222.979 275.75 222.979L255.93 222.599L256.83 201.819Z" fill="#FFBE9D"/>
<path d="M285.76 196.549C285.52 197.549 284.92 199.839 282.95 200.549L272.95 198.629C272.95 198.629 280.82 197.189 282.07 196.069C282.573 195.614 283.126 195.218 283.72 194.889C283.968 194.764 284.248 194.713 284.524 194.743C284.801 194.773 285.063 194.882 285.279 195.057C285.494 195.233 285.655 195.467 285.74 195.732C285.825 195.997 285.832 196.281 285.76 196.549Z" fill="#FFBE9D"/>
<path d="M277.71 199.29C277.71 199.46 279.71 199.97 282.24 200.29C284.77 200.61 286.83 200.85 286.86 200.66C286.89 200.47 284.86 199.98 282.33 199.66C279.8 199.34 277.74 199.11 277.71 199.29Z" fill="#EB996E"/>
<path d="M279.11 205.229C279.11 205.399 280.79 205.979 283 206.229C285.21 206.479 287 206.319 287 206.139C287 205.959 285.23 205.829 283.06 205.579C280.89 205.329 279.15 205.049 279.11 205.229Z" fill="#EB996E"/>
<path d="M274.11 203.738C273.95 203.808 274.06 204.388 274.57 204.838C275.08 205.288 275.66 205.328 275.71 205.158C275.76 204.988 275.4 204.698 275.01 204.348C274.62 203.998 274.28 203.658 274.11 203.738Z" fill="#EB996E"/>
<path d="M277 211.42C277 211.6 278.91 211.98 281.29 212.26C283.67 212.54 285.64 212.63 285.67 212.45C285.7 212.27 283.77 211.9 281.37 211.61C278.97 211.32 277.05 211.24 277 211.42Z" fill="#EB996E"/>
<path d="M271.71 207.871C271.63 207.871 271.45 208.011 271.34 208.401C271.211 208.919 271.286 209.467 271.55 209.931C271.811 210.407 272.244 210.765 272.76 210.931C273.14 211.031 273.39 210.931 273.4 210.881C273.41 210.831 272.58 210.461 272.12 209.631C271.66 208.801 271.88 207.931 271.71 207.871Z" fill="#EB996E"/>
<path d="M274.57 217.408C274.57 217.588 276.33 217.788 278.5 217.848C280.67 217.908 282.44 217.848 282.44 217.638C282.44 217.428 280.69 217.258 278.52 217.198C276.35 217.138 274.58 217.228 274.57 217.408Z" fill="#EB996E"/>
<path d="M269.46 213.398C269.38 213.398 269.22 213.568 269.17 213.958C269.132 214.464 269.247 214.969 269.5 215.408C270.1 216.408 270.88 216.858 270.99 216.748C271.1 216.638 270.57 215.928 270.07 215.088C269.57 214.248 269.62 213.448 269.46 213.398Z" fill="#EB996E"/>
<path d="M217.87 103.29C217.47 100.08 213.95 97.8301 210.76 98.2901C209.174 98.6131 207.711 99.3748 206.537 100.489C205.363 101.602 204.526 103.024 204.12 104.59C203.344 107.751 203.697 111.083 205.12 114.01C206.12 116.33 207.88 118.62 210.37 119.13C211.527 119.283 212.704 119.137 213.788 118.704C214.872 118.272 215.826 117.568 216.56 116.66C218.009 114.828 219.126 112.757 219.86 110.54L217.87 103.29Z" fill="#263238"/>
<path d="M221.93 102.59C221.399 102.31 220.786 102.227 220.199 102.357C219.613 102.487 219.092 102.821 218.73 103.3C218.033 104.282 217.681 105.467 217.73 106.67C217.673 108.666 218.056 110.649 218.85 112.48C218.934 112.768 219.08 113.034 219.277 113.26C219.474 113.486 219.717 113.667 219.99 113.79C220.27 113.854 220.563 113.834 220.833 113.735C221.102 113.636 221.338 113.46 221.51 113.23C221.853 112.767 222.083 112.229 222.18 111.66C222.98 108.319 222.81 104.818 221.69 101.57" fill="#368AC8"/>
<path d="M278.59 87.1477C284.21 84.3977 287.44 81.5477 286.97 79.2177C286.5 76.8877 275.19 73.2777 272.54 72.2977C266.29 69.9777 260.38 75.4977 250.54 77.4777C231.37 81.3277 216.61 88.3477 217.54 93.1577C218 95.4777 222.04 96.8577 228.24 97.2377" fill="#368AC8"/>
<g opacity="0.4">
<path opacity="0.4" d="M275.24 87.6511C280.24 85.2111 283.24 82.6511 282.67 80.6511C281.15 74.9911 267.35 75.6511 250.35 79.1111C233.35 82.5711 220.28 88.7111 221.14 93.0011C221.55 95.0611 225.14 96.2811 230.62 96.6211" fill="black"/>
</g>
<path d="M230.65 94.8185C230.088 91.662 230.164 88.4249 230.874 85.2983C231.584 82.1717 232.913 79.219 234.783 76.6146C236.653 74.0102 239.026 71.8068 241.761 70.1346C244.497 68.4624 247.539 67.3552 250.71 66.8785C263.4 64.9885 275.23 73.8785 277.82 86.4285C280.09 97.4285 282.13 108.579 282.3 112.649C282.8 124.929 275.87 130.089 273.04 131.649C272.015 132.093 270.945 132.428 269.85 132.649C269.839 132.651 269.829 132.655 269.82 132.662C269.811 132.668 269.804 132.676 269.798 132.686C269.793 132.695 269.789 132.705 269.788 132.716C269.786 132.727 269.787 132.738 269.79 132.749L273.27 146.689C275 155.859 270.27 164.359 261.14 166.199C252.01 168.039 244.36 161.339 242.45 152.199L230.65 94.8185Z" fill="#FFBE9D"/>
<path d="M274.07 94.0805C274.165 94.5789 274.067 95.0948 273.796 95.5238C273.525 95.9527 273.101 96.2625 272.61 96.3905C272.37 96.4584 272.119 96.4778 271.872 96.4474C271.625 96.417 271.386 96.3376 271.17 96.2137C270.954 96.0898 270.765 95.924 270.614 95.7259C270.463 95.5279 270.352 95.3017 270.29 95.0605C270.195 94.5621 270.293 94.0462 270.564 93.6173C270.835 93.1884 271.259 92.8785 271.75 92.7505C271.99 92.6826 272.24 92.6633 272.488 92.6936C272.735 92.724 272.974 92.8035 273.19 92.9274C273.406 93.0513 273.595 93.2171 273.746 93.4151C273.897 93.6131 274.007 93.8394 274.07 94.0805Z" fill="#263238"/>
<path d="M275.17 89.9185C274.98 90.2085 273.31 89.4285 271.25 89.8485C269.19 90.2685 267.89 91.5985 267.62 91.3985C267.35 91.1985 267.62 90.8085 268.2 90.1985C268.965 89.3966 269.961 88.8546 271.05 88.6485C272.121 88.4284 273.235 88.5545 274.23 89.0085C275 89.3685 275.26 89.7785 275.17 89.9185Z" fill="#263238"/>
<path d="M253.81 98.1512C253.905 98.6496 253.807 99.1655 253.536 99.5944C253.265 100.023 252.841 100.333 252.35 100.461C252.108 100.532 251.855 100.554 251.605 100.525C251.355 100.497 251.113 100.418 250.893 100.294C250.674 100.17 250.482 100.003 250.329 99.8031C250.175 99.6034 250.063 99.3749 250 99.1312C249.905 98.6328 250.003 98.1168 250.274 97.6879C250.545 97.259 250.969 96.9492 251.46 96.8212C251.702 96.7486 251.955 96.7257 252.206 96.7538C252.457 96.7819 252.699 96.8605 252.919 96.9847C253.138 97.109 253.33 97.2764 253.484 97.4769C253.637 97.6773 253.748 97.9067 253.81 98.1512Z" fill="#263238"/>
<path d="M255 94.369C254.82 94.669 253.15 93.889 251.09 94.299C249.03 94.709 247.73 96.059 247.45 95.849C247.32 95.759 247.45 95.259 248.03 94.649C248.801 93.855 249.795 93.3144 250.88 93.099C251.952 92.8813 253.066 93.0109 254.06 93.469C254.77 93.829 255.08 94.229 255 94.369Z" fill="#263238"/>
<path d="M265.54 108.151C266.557 107.596 267.638 107.169 268.76 106.881C269.28 106.721 269.76 106.511 269.76 106.141C269.696 105.589 269.465 105.07 269.1 104.651L266.73 100.951C263.43 95.681 260.92 91.301 261.13 91.171C261.34 91.041 264.2 95.171 267.51 100.481L269.81 104.211C270.267 104.776 270.511 105.484 270.5 106.211C270.463 106.412 270.379 106.601 270.256 106.765C270.132 106.928 269.973 107.06 269.79 107.151C269.515 107.293 269.223 107.398 268.92 107.461C267.828 107.836 266.692 108.068 265.54 108.151Z" fill="#263238"/>
<path d="M269.77 132.681C269.77 132.681 261.94 134.931 250.77 130.941C250.77 130.941 256.03 140.831 270.69 136.431L269.77 132.681Z" fill="#EB996E"/>
<path d="M265.66 113.3C265.168 112.885 264.579 112.602 263.947 112.477C263.315 112.353 262.663 112.392 262.05 112.59C261.605 112.721 261.191 112.941 260.834 113.237C260.476 113.532 260.182 113.897 259.97 114.31C259.76 114.708 259.679 115.161 259.738 115.608C259.797 116.054 259.994 116.47 260.3 116.8C260.703 117.104 261.189 117.28 261.693 117.305C262.198 117.33 262.699 117.203 263.13 116.94C264.038 116.405 264.828 115.691 265.45 114.84C265.654 114.631 265.814 114.382 265.92 114.11C265.971 113.982 265.984 113.841 265.955 113.706C265.927 113.57 265.859 113.447 265.76 113.35" fill="#EB996E"/>
<path d="M259.76 110.8C260.09 110.71 260.54 112.95 262.76 114.15C264.98 115.35 267.33 114.63 267.41 114.94C267.47 115.07 266.97 115.48 265.97 115.71C264.661 115.993 263.294 115.805 262.11 115.18C260.978 114.575 260.123 113.558 259.72 112.34C259.46 111.42 259.6 110.82 259.76 110.8Z" fill="#263238"/>
<path d="M254.45 87.7204C254.36 88.3204 252.25 88.4704 249.89 89.2504C247.53 90.0304 245.7 91.0804 245.28 90.6404C245.09 90.4304 245.33 89.8304 246.01 89.1304C246.929 88.2488 248.038 87.5901 249.251 87.2052C250.465 86.8203 251.751 86.7194 253.01 86.9104C254 87.0904 254.48 87.4404 254.45 87.7204Z" fill="#263238"/>
<path d="M273.35 84.7614C273.08 85.3014 271.56 85.1014 269.85 85.4214C268.14 85.7414 266.76 86.4214 266.32 85.9414C266.13 85.7314 266.26 85.2214 266.81 84.6514C267.546 83.9418 268.476 83.4677 269.482 83.2896C270.489 83.1115 271.526 83.2374 272.46 83.6514C273.16 84.0514 273.46 84.5014 273.35 84.7614Z" fill="#263238"/>
<path d="M259.63 75.0998C258.85 76.915 257.678 78.5351 256.198 79.8438C254.718 81.1526 252.967 82.1177 251.07 82.6698C248.58 83.3798 245.62 83.5098 244.07 85.5598C242.92 87.0598 242.92 89.0998 242.66 90.9698C242.25 93.8198 242.97 97.0998 240.8 98.9698C239.1 100.44 237.5 100.4 236.46 102.39C235.42 104.38 235.62 107.19 236.05 109.52C236.48 111.85 237.05 115.52 235.14 117C233.36 108.56 228.8 99.5298 227.03 91.0898C226.685 89.8477 226.577 88.552 226.71 87.2698C227.21 84.4098 229.95 82.5498 232.54 81.2698C239.89 77.5898 247.99 75.6998 255.99 73.8398" fill="#263238"/>
<path d="M281.74 77.9213C281.74 77.9213 272.68 58.5113 272.05 57.6013C271.42 56.6913 263.82 48.9313 249.41 49.1613L237.92 51.4713C237.92 51.4713 222.66 60.0013 220.48 64.5613C218.3 69.1213 220.9 88.6813 220.9 88.6813L251.71 75.2113L274.71 76.1513L281.74 77.9213Z" fill="#368AC8"/>
<path d="M245.18 47.5796L248.35 46.9396C248.984 46.8084 249.642 46.8665 250.243 47.1065C250.844 47.3465 251.361 47.758 251.73 48.2896C252.359 49.2354 252.826 50.2798 253.11 51.3796C254.06 54.9096 259.79 79.2496 259.79 79.2496L245.25 81.4796L239.64 51.1296L235 53.1896L234.91 52.2896C234.85 51.7437 234.958 51.1925 235.22 50.7096C235.402 50.3778 235.654 50.0891 235.957 49.8631C236.261 49.6371 236.61 49.479 236.98 49.3996L245.18 47.5796Z" fill="#368AC8"/>
<path d="M278.11 80.77L275.17 74L251.24 71.5L225.77 84.91L227.37 92.91C227.37 92.91 248.32 79.2 278.11 80.77Z" fill="#455A64"/>
<path d="M272.54 72.3001L273.68 73.03L282.42 77.18C282.42 77.18 266.63 75.1801 251.16 78.4401C235.69 81.7001 219 90.52 219 90.52L228 82.28C229.271 80.2276 230.939 78.4501 232.908 77.0521C234.876 75.6542 237.104 74.6641 239.46 74.14L258.85 69.85C261.18 69.33 263.591 69.2789 265.941 69.6995C268.291 70.1201 270.535 71.0041 272.54 72.3001Z" fill="#368AC8"/>
<path d="M280.26 77.9094C280.26 77.9094 280.08 77.7694 279.69 77.5794C279.128 77.2958 278.538 77.0713 277.93 76.9094C275.697 76.3192 273.4 76.0035 271.09 75.9694C263.49 75.8543 255.917 76.9135 248.64 79.1094C244.38 80.2894 240.29 81.3294 236.64 82.6194C233.439 83.7787 230.304 85.114 227.25 86.6194C225.95 87.2694 224.8 87.9294 223.82 88.5494C222.92 89.0298 222.146 89.7149 221.56 90.5494C221.208 91.1084 221.072 91.7773 221.18 92.4294C221.28 92.8694 221.45 93.0494 221.47 93.0394C221.353 92.6509 221.326 92.2407 221.392 91.8404C221.458 91.44 221.615 91.06 221.85 90.7294C222.456 89.9942 223.217 89.4032 224.08 88.9994C225.08 88.4194 226.23 87.8194 227.53 87.1994C230.14 85.9994 233.34 84.6294 236.91 83.3694C240.48 82.1094 244.6 81.1194 248.91 79.9394C256.119 77.7821 263.596 76.651 271.12 76.5794C273.39 76.5594 275.656 76.7773 277.88 77.2294C279.42 77.5694 280.21 77.9994 280.26 77.9094Z" fill="#263238"/>
<path d="M278 80.5508C280.77 86.7408 290.43 95.5508 281.17 104.101C281.17 104.101 278.25 90.1008 276.01 84.8708C275.441 83.2855 274.525 81.8473 273.33 80.6608" fill="#263238"/>
<path d="M230.51 92.1289C227.354 92.7384 224.554 94.5405 222.691 97.1607C220.829 99.7808 220.048 103.018 220.51 106.199C220.82 107.849 221.51 109.479 221.3 111.199C221.09 112.919 220.22 114.269 219.81 115.859C219 118.999 218.81 124.169 219.92 127.239C222.46 134.539 231.72 143.539 240.11 141.859" fill="#263238"/>
<path d="M236.72 135.81C237.593 135.978 238.494 135.932 239.346 135.676C240.197 135.42 240.974 134.962 241.61 134.34C242.859 133.07 243.752 131.494 244.2 129.77C244.987 127.024 245.102 124.128 244.534 121.327C243.967 118.527 242.734 115.904 240.94 113.68C243.027 109.909 244.149 105.68 244.204 101.371C244.26 97.0609 243.249 92.8044 241.26 88.9805L229.5 92.4605L236.72 135.81Z" fill="#263238"/>
<path d="M218 110.481C217.526 111.182 216.887 111.755 216.14 112.151C214.379 113.244 212.296 113.7 210.24 113.441C208.179 113.208 206.264 112.26 204.83 110.761C204.198 110.175 203.791 109.386 203.68 108.531C204.057 109.259 204.532 109.931 205.09 110.531C206.528 111.867 208.352 112.714 210.3 112.951C212.252 113.182 214.227 112.797 215.95 111.851C217.27 111.111 217.93 110.411 218 110.481Z" fill="#455A64"/>
<path d="M217.1 108.9C216.473 109.297 215.766 109.55 215.03 109.64C213.261 109.991 211.432 109.884 209.716 109.331C207.999 108.778 206.452 107.797 205.22 106.48C204.679 105.971 204.255 105.35 203.98 104.66C204.05 104.66 204.52 105.31 205.48 106.22C206.731 107.41 208.233 108.302 209.876 108.832C211.519 109.362 213.26 109.515 214.97 109.28C216.28 109.1 217.07 108.82 217.1 108.9Z" fill="#455A64"/>
<path d="M242.63 92.2188C242.662 92.6134 242.638 93.0106 242.56 93.3988C242.417 94.4714 242.166 95.5268 241.81 96.5488C240.651 99.9653 238.475 102.946 235.574 105.091C232.674 107.236 229.186 108.442 225.58 108.549C224.499 108.591 223.417 108.52 222.35 108.339C221.955 108.299 221.567 108.201 221.2 108.049C222.649 108.187 224.105 108.23 225.56 108.179C229.066 107.978 232.437 106.761 235.262 104.676C238.087 102.592 240.244 99.7292 241.47 96.4388C241.939 95.0559 242.326 93.6468 242.63 92.2188Z" fill="#455A64"/>
<path d="M243 109.848C243 109.848 242.83 110.128 242.42 110.538C241.819 111.119 241.147 111.623 240.42 112.038C238.02 113.39 235.304 114.081 232.55 114.038C229.841 113.972 227.152 113.556 224.55 112.798C223.55 112.518 222.75 112.278 222.2 112.088C221.906 112.018 221.623 111.906 221.36 111.758C222.467 111.913 223.563 112.14 224.64 112.438C227.24 113.085 229.902 113.447 232.58 113.518C235.25 113.553 237.889 112.938 240.27 111.728C241.219 111.16 242.131 110.532 243 109.848Z" fill="#455A64"/>
<path d="M282.25 75.8985C282.01 75.8588 281.775 75.7917 281.55 75.6985L279.61 74.9985L272.48 72.4385L270.64 70.7885C270.019 70.17 269.327 69.6263 268.58 69.1685C267.769 68.7192 266.873 68.4433 265.95 68.3585C264.942 68.3228 263.934 68.4169 262.95 68.6385C258.87 69.3185 254.4 70.2685 249.74 71.3485C245.41 72.3485 241.27 73.3485 237.49 74.3485C236.57 74.5334 235.688 74.8714 234.88 75.3485C234.142 75.7914 233.503 76.3801 233 77.0785C232.07 78.5285 231.25 79.9885 230.47 81.2785L223.54 86.3985L221.63 87.7785C221.416 87.9473 221.189 88.0979 220.95 88.2285C221.138 88.0286 221.346 87.8477 221.57 87.6885L223.41 86.2285L230.13 80.9985V81.0585C230.91 79.7385 231.68 78.3085 232.64 76.7885C233.171 76.0261 233.851 75.3797 234.64 74.8885C235.489 74.407 236.411 74.0691 237.37 73.8885C241.15 72.8885 245.28 71.8885 249.63 70.8885C254.29 69.8085 258.77 68.8885 262.88 68.1985C263.888 67.9806 264.92 67.8965 265.95 67.9485C266.935 68.0407 267.889 68.3406 268.75 68.8285C269.522 69.3084 270.234 69.8791 270.87 70.5285L272.68 72.1985H272.62L279.7 74.9085L281.61 75.6685C281.828 75.7303 282.042 75.8071 282.25 75.8985Z" fill="#263238"/>
<path d="M243.58 72.5391C243.45 72.2172 243.356 71.8818 243.3 71.5391C243.15 70.8891 242.95 69.9591 242.71 68.7991C242.24 66.4891 241.62 63.2891 240.96 59.7991C240.65 58.0291 240.34 56.3491 240.06 54.7991C239.93 54.0391 239.81 53.3091 239.69 52.6191C239.671 52.4874 239.624 52.3614 239.552 52.2495C239.48 52.1375 239.385 52.0423 239.273 51.9703C239.161 51.8983 239.035 51.8511 238.904 51.8319C238.772 51.8127 238.638 51.822 238.51 51.8591L235.94 52.8591C235.626 53.0178 235.288 53.1258 234.94 53.1791C235.219 52.9769 235.521 52.8091 235.84 52.6791C236.44 52.3791 237.27 51.9691 238.38 51.4691C238.558 51.4103 238.746 51.39 238.933 51.4096C239.119 51.4292 239.299 51.4883 239.461 51.5829C239.623 51.6775 239.762 51.8054 239.871 51.9582C239.979 52.1111 240.054 52.2852 240.09 52.4691C240.23 53.1591 240.37 53.8891 240.52 54.6491C240.81 56.1891 241.12 57.8691 241.46 59.6491C242.11 63.1891 242.67 66.3991 243.05 68.7291C243.24 69.8891 243.39 70.8391 243.48 71.4891C243.566 71.832 243.6 72.1861 243.58 72.5391Z" fill="#263238"/>
<path d="M257.47 69.448C257.013 68.527 256.661 67.5576 256.42 66.558C255.87 64.738 255.24 62.198 254.57 59.388C253.9 56.578 253.33 54.018 252.94 52.168C252.679 51.1852 252.505 50.1813 252.42 49.168C252.798 50.1411 253.093 51.1448 253.3 52.168C253.78 53.998 254.41 56.538 255.08 59.348C255.75 62.158 256.31 64.548 256.78 66.548C257.067 67.5001 257.298 68.4684 257.47 69.448Z" fill="#263238"/>
<path d="M282 109.64C284.053 109.55 286.069 109.068 287.94 108.22C289.967 107.353 291.735 105.975 293.07 104.22C293.803 103.098 294.293 101.836 294.51 100.513C294.727 99.1907 294.666 97.8375 294.33 96.5402C294.04 95.2293 293.49 93.9896 292.714 92.894C291.938 91.7984 290.95 90.869 289.81 90.1602C287.818 89.1631 285.776 88.2718 283.69 87.4902C282.277 86.8805 281.017 85.9652 280 84.8102C279.735 84.5024 279.504 84.1672 279.31 83.8102C279.19 83.5602 279.13 83.4202 279.15 83.4102C279.459 83.8649 279.793 84.3023 280.15 84.7202C281.208 85.7772 282.47 86.6075 283.86 87.1602C285.983 87.9026 288.06 88.7708 290.08 89.7602C291.285 90.4911 292.33 91.4592 293.149 92.6057C293.969 93.7522 294.548 95.0533 294.85 96.4302C295.205 97.7973 295.267 99.2242 295.031 100.617C294.795 102.01 294.266 103.337 293.48 104.51C292.087 106.328 290.233 107.741 288.11 108.6C286.708 109.213 285.215 109.591 283.69 109.72C283.277 109.75 282.863 109.75 282.45 109.72C282.296 109.724 282.143 109.697 282 109.64Z" fill="#263238"/>
<path d="M207.15 105.658C207.15 105.658 207.06 105.658 206.92 105.488C206.718 105.306 206.534 105.105 206.37 104.888C205.777 104.076 205.39 103.133 205.24 102.138C204.996 100.641 205.275 99.1047 206.03 97.7883C206.532 97.0092 207.195 96.346 207.973 95.8428C208.752 95.3396 209.629 95.0079 210.545 94.8698C211.462 94.7316 212.397 94.7903 213.29 95.0418C214.182 95.2933 215.01 95.7318 215.72 96.3283C216.831 97.3582 217.555 98.7386 217.77 100.238C217.922 101.246 217.829 102.274 217.5 103.238C217.411 103.494 217.294 103.739 217.15 103.968C217.06 104.128 217 104.208 216.99 104.198C216.98 104.188 217.13 103.838 217.3 103.198C217.54 102.267 217.577 101.295 217.41 100.348C217.162 98.9564 216.459 97.6864 215.41 96.7383C214.746 96.1969 213.976 95.8002 213.15 95.5737C212.323 95.3471 211.459 95.2958 210.611 95.4229C209.764 95.55 208.953 95.8527 208.229 96.3117C207.506 96.7708 206.886 97.3759 206.41 98.0883C205.702 99.2948 205.408 100.699 205.57 102.088C205.689 103.039 206.009 103.952 206.51 104.768C206.91 105.348 207.18 105.618 207.15 105.658Z" fill="#263238"/>
<path d="M238.27 140.201C238.139 140.274 237.997 140.325 237.85 140.351C237.57 140.441 237.16 140.541 236.62 140.671C235.096 141.033 233.544 141.264 231.98 141.361C229.639 141.545 227.287 141.182 225.11 140.301C222.468 139.091 220.297 137.046 218.93 134.481C217.558 131.948 216.84 129.112 216.84 126.231C216.842 123.899 217.179 121.578 217.84 119.341C218.28 117.844 218.828 116.38 219.48 114.961C219.71 114.461 219.9 114.071 220.04 113.821C220.1 113.685 220.177 113.558 220.27 113.441C220.103 113.987 219.903 114.521 219.67 115.041C219.093 116.478 218.602 117.947 218.2 119.441C217.586 121.649 217.28 123.93 217.29 126.221C217.312 129.018 218.023 131.766 219.36 134.221C220.666 136.691 222.74 138.667 225.27 139.851C227.398 140.737 229.699 141.13 232 141.001C233.547 140.938 235.088 140.764 236.61 140.481C237.157 140.352 237.711 140.259 238.27 140.201Z" fill="#263238"/>
<path d="M216.93 115.51C216.917 115.673 216.877 115.832 216.81 115.98C216.652 116.43 216.437 116.856 216.17 117.25C215.17 118.712 213.686 119.774 211.98 120.25C210.811 120.598 209.575 120.653 208.38 120.41C207.006 120.128 205.717 119.525 204.62 118.65C203.407 117.694 202.429 116.473 201.76 115.08C201.062 113.577 200.7 111.938 200.7 110.28C200.687 107.077 201.79 103.969 203.82 101.49C204.615 100.451 205.633 99.6043 206.8 99.0122C207.967 98.4202 209.252 98.0983 210.56 98.0704C212.332 98.0612 214.041 98.7343 215.33 99.9504C215.809 100.375 216.176 100.911 216.4 101.51C216.048 101.001 215.646 100.529 215.2 100.1C213.91 98.9948 212.258 98.4037 210.56 98.4404C209.316 98.4913 208.099 98.8183 206.998 99.3977C205.896 99.9771 204.937 100.794 204.19 101.79C202.246 104.192 201.187 107.19 201.19 110.28C201.19 111.861 201.531 113.423 202.19 114.86C202.824 116.187 203.746 117.356 204.89 118.28C205.925 119.112 207.135 119.697 208.43 119.99C209.565 120.23 210.741 120.196 211.86 119.89C213.501 119.464 214.952 118.499 215.98 117.15C216.34 116.63 216.658 116.082 216.93 115.51Z" fill="#263238"/>
<path d="M502.76 223.59H177.31C169.263 223.59 162.74 230.113 162.74 238.16V443.51C162.74 451.557 169.263 458.08 177.31 458.08H502.76C510.807 458.08 517.33 451.557 517.33 443.51V238.16C517.33 230.113 510.807 223.59 502.76 223.59Z" fill="#455A64"/>
<path d="M148.88 442.941H533.05V445.661C533.05 450.382 531.175 454.91 527.836 458.248C524.498 461.586 519.971 463.461 515.25 463.461H166.68C161.959 463.461 157.432 461.586 154.094 458.248C150.755 454.91 148.88 450.382 148.88 445.661V442.941Z" fill="#455A64"/>
<path d="M506.82 232.91H172.26V430.93H506.82V232.91Z" fill="#263238"/>
<path d="M305.08 440.738L309.85 448.318H376.93L381.36 440.738H305.08Z" fill="#263238"/>
<path d="M497.35 239.609H182.42C180.614 239.609 179.15 241.073 179.15 242.879V427.019C179.15 428.825 180.614 430.289 182.42 430.289H497.35C499.156 430.289 500.62 428.825 500.62 427.019V242.879C500.62 241.073 499.156 239.609 497.35 239.609Z" fill="#EBEBEB"/>
<path d="M500.27 430.581H178.81L179.15 253.871H500.27V430.581Z" fill="#FAFAFA"/>
<path d="M205.51 247C205.51 247.508 205.359 248.006 205.076 248.429C204.793 248.851 204.391 249.181 203.921 249.375C203.451 249.569 202.934 249.62 202.435 249.52C201.936 249.42 201.478 249.174 201.119 248.813C200.76 248.453 200.516 247.994 200.418 247.495C200.32 246.996 200.372 246.479 200.569 246.009C200.765 245.54 201.096 245.139 201.519 244.858C201.943 244.577 202.441 244.428 202.95 244.43C203.287 244.43 203.621 244.496 203.932 244.626C204.243 244.755 204.526 244.944 204.764 245.183C205.002 245.422 205.19 245.705 205.318 246.017C205.446 246.329 205.511 246.663 205.51 247Z" fill="#263238"/>
<path d="M190 247C190 247.508 189.849 248.006 189.566 248.429C189.283 248.851 188.881 249.181 188.411 249.375C187.941 249.569 187.424 249.62 186.925 249.52C186.426 249.42 185.968 249.174 185.609 248.813C185.25 248.453 185.006 247.994 184.908 247.495C184.81 246.996 184.862 246.479 185.058 246.009C185.255 245.54 185.586 245.139 186.009 244.858C186.433 244.577 186.931 244.428 187.44 244.43C187.777 244.43 188.111 244.496 188.422 244.626C188.733 244.755 189.016 244.944 189.254 245.183C189.492 245.422 189.68 245.705 189.808 246.017C189.936 246.329 190.001 246.663 190 247Z" fill="#263238"/>
<path d="M197.42 247C197.42 247.508 197.269 248.006 196.986 248.429C196.703 248.851 196.301 249.181 195.831 249.375C195.361 249.569 194.844 249.62 194.345 249.52C193.846 249.42 193.388 249.174 193.029 248.813C192.67 248.453 192.426 247.994 192.328 247.495C192.23 246.996 192.282 246.479 192.479 246.009C192.675 245.54 193.006 245.139 193.429 244.858C193.853 244.577 194.351 244.428 194.86 244.43C195.54 244.432 196.191 244.704 196.671 245.186C197.151 245.668 197.42 246.32 197.42 247Z" fill="#263238"/>
<path d="M514.28 440.738C514.28 440.868 435.58 440.968 338.52 440.968C241.46 440.968 162.74 440.868 162.74 440.738C162.74 440.608 241.43 440.508 338.52 440.508C435.61 440.508 514.28 440.608 514.28 440.738Z" fill="#263238"/>
<path d="M380.92 396.088C380.92 396.228 361.64 396.348 337.86 396.348C314.08 396.348 294.8 396.228 294.8 396.088C294.8 395.948 314.08 395.828 337.86 395.828C361.64 395.828 380.92 395.998 380.92 396.088Z" fill="#E0E0E0"/>
<path d="M282.51 350.801H186.58V422.901H282.51V350.801Z" fill="#F5F5F5"/>
<path d="M186.62 422.952L220.08 378.102L240.86 406.122L254.93 391.122L282.55 422.862L186.62 422.952Z" fill="#E0E0E0"/>
<path d="M249.64 372.579C249.642 374.072 249.201 375.533 248.373 376.775C247.545 378.018 246.367 378.987 244.988 379.561C243.61 380.134 242.092 380.285 240.627 379.996C239.162 379.707 237.816 378.989 236.758 377.935C235.701 376.88 234.98 375.536 234.687 374.072C234.394 372.608 234.541 371.089 235.111 369.709C235.681 368.329 236.647 367.148 237.887 366.317C239.128 365.486 240.587 365.041 242.08 365.039C243.072 365.036 244.054 365.23 244.972 365.607C245.889 365.985 246.722 366.54 247.425 367.24C248.127 367.941 248.684 368.773 249.064 369.689C249.444 370.605 249.64 371.587 249.64 372.579Z" fill="#E0E0E0"/>
<path d="M489.5 350.91H393.57V423.01H489.5V350.91Z" fill="#F5F5F5"/>
<path d="M393.6 423.061L427.07 378.211L447.85 406.231L461.91 391.231L489.53 422.971L393.6 423.061Z" fill="#E0E0E0"/>
<path d="M456.63 372.691C456.632 374.186 456.19 375.649 455.361 376.893C454.531 378.138 453.351 379.109 451.97 379.682C450.589 380.256 449.068 380.407 447.601 380.117C446.134 379.826 444.786 379.107 443.728 378.05C442.67 376.993 441.949 375.646 441.656 374.179C441.363 372.712 441.513 371.192 442.085 369.81C442.656 368.428 443.625 367.247 444.869 366.415C446.112 365.584 447.574 365.141 449.07 365.141C451.073 365.141 452.995 365.936 454.412 367.351C455.83 368.767 456.627 370.687 456.63 372.691Z" fill="#E0E0E0"/>
<path d="M474.32 336.581C475.209 336.432 476.11 336.372 477.01 336.401C478.67 336.401 481.01 336.321 483.5 336.321H486.32L486.07 336.571C486.07 334.721 486.12 333.131 486.17 332.001C486.148 331.4 486.198 330.799 486.32 330.211C486.443 330.799 486.497 331.4 486.48 332.001C486.48 333.131 486.55 334.721 486.57 336.571V336.821H483.5C480.97 336.821 478.67 336.821 477.01 336.741C476.11 336.777 475.209 336.723 474.32 336.581Z" fill="#E0E0E0"/>
<path d="M450.32 336.58C454.312 336.234 458.328 336.234 462.32 336.58C458.328 336.927 454.312 336.927 450.32 336.58Z" fill="#E0E0E0"/>
<path d="M426.32 336.58C430.312 336.234 434.328 336.234 438.32 336.58C434.328 336.927 430.312 336.927 426.32 336.58Z" fill="#E0E0E0"/>
<path d="M402.32 336.58C406.312 336.234 410.328 336.234 414.32 336.58C410.328 336.927 406.312 336.927 402.32 336.58Z" fill="#E0E0E0"/>
<path d="M378.32 336.58C382.312 336.234 386.328 336.234 390.32 336.58C386.328 336.927 382.312 336.927 378.32 336.58Z" fill="#E0E0E0"/>
<path d="M354.32 336.58C358.312 336.234 362.328 336.234 366.32 336.58C362.328 336.927 358.312 336.927 354.32 336.58Z" fill="#E0E0E0"/>
<path d="M330.32 336.58C334.312 336.234 338.328 336.234 342.32 336.58C338.328 336.927 334.312 336.927 330.32 336.58Z" fill="#E0E0E0"/>
<path d="M306.32 336.58C310.312 336.234 314.328 336.234 318.32 336.58C314.328 336.927 310.312 336.927 306.32 336.58Z" fill="#E0E0E0"/>
<path d="M282.32 336.58C284.309 336.323 286.316 336.236 288.32 336.32C290.324 336.236 292.331 336.323 294.32 336.58C292.331 336.838 290.324 336.925 288.32 336.84C286.316 336.924 284.309 336.837 282.32 336.58Z" fill="#E0E0E0"/>
<path d="M258.32 336.58C260.309 336.323 262.316 336.236 264.32 336.32C266.324 336.236 268.331 336.323 270.32 336.58C268.331 336.838 266.324 336.925 264.32 336.84C262.316 336.924 260.309 336.837 258.32 336.58Z" fill="#E0E0E0"/>
<path d="M234.32 336.58C236.309 336.323 238.316 336.236 240.32 336.32C242.324 336.236 244.331 336.323 246.32 336.58C244.331 336.838 242.324 336.925 240.32 336.84C238.316 336.924 236.309 336.837 234.32 336.58Z" fill="#E0E0E0"/>
<path d="M210.32 336.58C212.309 336.323 214.316 336.236 216.32 336.32C218.324 336.236 220.331 336.323 222.32 336.58C220.331 336.838 218.324 336.925 216.32 336.84C214.316 336.924 212.309 336.837 210.32 336.58Z" fill="#E0E0E0"/>
<path d="M186.34 336.57C188.33 336.323 190.337 336.24 192.34 336.32C194.344 336.236 196.351 336.323 198.34 336.58C196.351 336.838 194.344 336.925 192.34 336.84C190.337 336.921 188.33 336.837 186.34 336.59V336.57Z" fill="#E0E0E0"/>
<path d="M186.34 312.57C186.687 316.563 186.687 320.578 186.34 324.57C185.993 320.578 185.993 316.563 186.34 312.57Z" fill="#E0E0E0"/>
<path d="M186.34 288.57C186.597 290.559 186.684 292.567 186.6 294.57C186.684 296.574 186.597 298.581 186.34 300.57C186.077 298.582 185.99 296.574 186.08 294.57C185.99 292.567 186.077 290.559 186.34 288.57Z" fill="#E0E0E0"/>
<path d="M186.34 264.57C186.597 266.559 186.684 268.567 186.6 270.57C186.684 272.574 186.597 274.581 186.34 276.57C186.077 274.582 185.99 272.574 186.08 270.57C185.99 268.567 186.077 266.559 186.34 264.57Z" fill="#E0E0E0"/>
<path d="M207.16 261.388C205.171 261.645 203.164 261.732 201.16 261.648C199.156 261.733 197.149 261.646 195.16 261.388C197.148 261.125 199.156 261.038 201.16 261.128C203.164 261.039 205.172 261.126 207.16 261.388Z" fill="#E0E0E0"/>
<path d="M231.16 261.388C229.171 261.645 227.164 261.732 225.16 261.648C223.156 261.733 221.149 261.646 219.16 261.388C221.148 261.125 223.156 261.038 225.16 261.128C227.164 261.039 229.172 261.126 231.16 261.388Z" fill="#E0E0E0"/>
<path d="M255.16 261.388C253.171 261.645 251.164 261.732 249.16 261.648C247.156 261.733 245.149 261.646 243.16 261.388C245.148 261.125 247.156 261.038 249.16 261.128C251.164 261.039 253.172 261.126 255.16 261.388Z" fill="#E0E0E0"/>
<path d="M279.16 261.388C277.171 261.645 275.164 261.732 273.16 261.648C271.156 261.733 269.149 261.646 267.16 261.388C269.148 261.125 271.156 261.038 273.16 261.128C275.164 261.039 277.172 261.126 279.16 261.388Z" fill="#E0E0E0"/>
<path d="M303.16 261.388C299.168 261.735 295.153 261.735 291.16 261.388C293.148 261.125 295.156 261.038 297.16 261.128C299.164 261.039 301.172 261.126 303.16 261.388Z" fill="#E0E0E0"/>
<path d="M327.16 261.389C323.168 261.736 319.153 261.736 315.16 261.389C319.153 261.042 323.168 261.042 327.16 261.389Z" fill="#E0E0E0"/>
<path d="M351.16 261.389C347.168 261.736 343.153 261.736 339.16 261.389C343.153 261.042 347.168 261.042 351.16 261.389Z" fill="#E0E0E0"/>
<path d="M375.16 261.389C371.168 261.736 367.153 261.736 363.16 261.389C367.153 261.042 371.168 261.042 375.16 261.389Z" fill="#E0E0E0"/>
<path d="M399.16 261.389C395.168 261.736 391.153 261.736 387.16 261.389C391.153 261.042 395.168 261.042 399.16 261.389Z" fill="#E0E0E0"/>
<path d="M423.16 261.389C419.168 261.736 415.153 261.736 411.16 261.389C415.153 261.042 419.168 261.042 423.16 261.389Z" fill="#E0E0E0"/>
<path d="M447.16 261.389C443.168 261.736 439.153 261.736 435.16 261.389C439.153 261.042 443.168 261.042 447.16 261.389Z" fill="#E0E0E0"/>
<path d="M471.16 261.389C467.168 261.736 463.153 261.736 459.16 261.389C463.153 261.042 467.168 261.042 471.16 261.389Z" fill="#E0E0E0"/>
<path d="M486.32 270.221C486.063 268.232 485.976 266.225 486.06 264.221C486.06 263.221 486.06 262.281 486.06 261.391L486.29 261.621C485.231 261.661 484.172 261.584 483.13 261.391C484.171 261.192 485.231 261.115 486.29 261.161H486.52V261.401C486.52 262.291 486.52 263.231 486.52 264.231C486.629 266.23 486.562 268.234 486.32 270.221Z" fill="#E0E0E0"/>
<path d="M486.32 294.219C486.063 292.23 485.976 290.223 486.06 288.219C485.976 286.215 486.063 284.208 486.32 282.219C486.583 284.207 486.67 286.215 486.58 288.219C486.67 290.223 486.583 292.23 486.32 294.219Z" fill="#E0E0E0"/>
<path d="M486.32 318.219C485.973 314.226 485.973 310.211 486.32 306.219C486.667 310.211 486.667 314.226 486.32 318.219Z" fill="#E0E0E0"/>
<path d="M380.92 420.401C380.92 420.551 361.64 420.661 337.86 420.661C314.08 420.661 294.8 420.551 294.8 420.401C294.8 420.251 314.08 420.141 337.86 420.141C361.64 420.141 380.92 420.261 380.92 420.401Z" fill="#E0E0E0"/>
<path d="M380.92 409.28C380.92 409.42 361.64 409.54 337.86 409.54C314.08 409.54 294.8 409.42 294.8 409.28C294.8 409.14 314.08 409.02 337.86 409.02C361.64 409.02 380.92 409.14 380.92 409.28Z" fill="#E0E0E0"/>
<path d="M117.16 323.531H111.98V463.261H117.16V323.531Z" fill="#263238"/>
<path d="M114.57 328.51C131.205 328.51 144.69 315.024 144.69 298.39C144.69 281.755 131.205 268.27 114.57 268.27C97.9352 268.27 84.45 281.755 84.45 298.39C84.45 315.024 97.9352 328.51 114.57 328.51Z" fill="#368AC8"/>
<path d="M141.69 297.999C141.659 297.854 141.642 297.707 141.64 297.559C141.64 297.249 141.64 296.819 141.55 296.279C141.55 295.989 141.55 295.679 141.49 295.329C141.43 294.979 141.37 294.609 141.31 294.199C141.191 293.256 141.001 292.323 140.74 291.409C140.109 288.878 139.097 286.457 137.74 284.229C135.96 281.272 133.632 278.682 130.88 276.599C127.3 273.876 123.093 272.098 118.646 271.427C114.198 270.756 109.654 271.214 105.43 272.759C104.229 273.191 103.06 273.706 101.93 274.299C101.36 274.609 100.81 274.969 100.25 275.299C99.6854 275.635 99.1442 276.01 98.63 276.419C97.5755 277.217 96.5734 278.082 95.63 279.009C94.6787 279.986 93.7965 281.029 92.99 282.129C91.3238 284.374 90.0305 286.872 89.16 289.529C88.2549 292.263 87.7694 295.119 87.72 297.999C87.7556 300.875 88.2208 303.73 89.1 306.469C89.9739 309.129 91.2705 311.631 92.94 313.879C93.7484 314.975 94.6269 316.017 95.57 316.999C96.5298 317.927 97.5486 318.792 98.62 319.589C99.1342 319.998 99.6754 320.373 100.24 320.709C100.8 321.039 101.35 321.399 101.92 321.709C103.048 322.306 104.218 322.821 105.42 323.249C111.3 325.386 117.74 325.41 123.635 323.317C129.531 321.224 134.514 317.145 137.73 311.779C139.089 309.555 140.1 307.138 140.73 304.609C140.991 303.691 141.181 302.755 141.3 301.809C141.37 301.409 141.44 301.029 141.48 300.679C141.52 300.329 141.48 300.019 141.54 299.739C141.58 299.186 141.61 298.756 141.63 298.449C141.632 298.301 141.649 298.154 141.68 298.009C141.693 298.155 141.693 298.303 141.68 298.449C141.68 298.769 141.68 299.199 141.68 299.739C141.68 300.032 141.68 300.366 141.68 300.739C141.68 301.089 141.58 301.459 141.53 301.879C141.421 302.83 141.244 303.773 141 304.699C140.377 307.261 139.365 309.713 138 311.969C136.032 315.303 133.377 318.181 130.212 320.41C127.046 322.639 123.442 324.17 119.64 324.899C114.836 325.803 109.877 325.402 105.28 323.739C104.052 323.303 102.856 322.781 101.7 322.179C101.13 321.869 100.57 321.509 100 321.179C99.4158 320.826 98.8577 320.432 98.33 319.999C97.2343 319.195 96.1952 318.316 95.22 317.369C94.2545 316.373 93.3558 315.314 92.53 314.199C90.8302 311.91 89.5069 309.365 88.61 306.659C86.7303 301.052 86.7303 294.986 88.61 289.379C89.5069 286.673 90.8302 284.128 92.53 281.839C93.3563 280.728 94.255 279.672 95.22 278.679C96.1937 277.715 97.2329 276.82 98.33 275.999C98.8502 275.581 99.4018 275.203 99.98 274.869C100.55 274.529 101.11 274.159 101.68 273.869C102.838 273.271 104.034 272.75 105.26 272.309C109.858 270.648 114.817 270.251 119.62 271.159C123.428 271.884 127.037 273.413 130.207 275.645C133.377 277.876 136.033 280.759 138 284.099C139.367 286.358 140.379 288.813 141 291.379C141.245 292.305 141.422 293.247 141.53 294.199C141.58 294.609 141.65 294.989 141.68 295.339C141.71 295.689 141.68 295.999 141.68 296.339C141.68 296.889 141.68 297.339 141.68 297.629C141.693 297.752 141.696 297.876 141.69 297.999Z" fill="white"/>
<path d="M130.26 294.629H98.89V301.169H130.26V294.629Z" fill="#FAFAFA"/>
<path d="M518.402 259.774L225.006 283.328L231.844 368.504L525.24 344.95L518.402 259.774Z" fill="white"/>
<path d="M525.26 344.91C525.16 343.68 522.67 313.42 518.26 259.75L518.43 259.9L225.06 283.57L225.29 283.29C227.65 312.69 229.95 341.29 232.13 368.46L231.86 368.23L441.56 351.5L525.26 344.91L523.83 345.04L519.59 345.4L503.14 346.75L441.75 351.75L231.89 368.75H231.64V368.49C229.45 341.34 227.15 312.72 224.79 283.32V283.06H225.05L518.4 259.57H518.57V259.73C522.79 313.41 525.17 343.68 525.26 344.91Z" fill="#263238"/>
<path d="M325.707 285.511L233.057 291.996L237.932 361.636L330.582 355.151L325.707 285.511Z" fill="#368AC8"/>
<path d="M440.82 344.882C438.845 345.305 436.838 345.559 434.82 345.642L434.54 345.402V345.112V344.812C434.54 344.602 434.54 344.412 434.54 344.212C434.54 343.832 434.48 343.462 434.46 343.092C434.46 342.432 434.39 341.802 434.35 341.182C434.265 340.598 434.265 340.005 434.35 339.422C434.545 339.979 434.656 340.562 434.68 341.152C434.75 341.762 434.82 342.392 434.9 343.052C434.9 343.412 434.97 343.792 435 344.172L435.06 344.762V345.072V345.352L434.78 345.112C436.783 344.866 438.804 344.789 440.82 344.882Z" fill="#E0E0E0"/>
<path d="M468 342.591C465.77 343.034 463.511 343.311 461.24 343.421C458.982 343.704 456.705 343.808 454.43 343.731C456.66 343.288 458.919 343.011 461.19 342.901C463.448 342.618 465.725 342.514 468 342.591Z" fill="#E0E0E0"/>
<path d="M495.1 340.302C492.87 340.745 490.611 341.022 488.34 341.132C486.081 341.41 483.805 341.513 481.53 341.442C483.76 340.999 486.019 340.722 488.29 340.612C490.548 340.329 492.825 340.225 495.1 340.302Z" fill="#E0E0E0"/>
<path d="M514.14 332.672C514.574 334.628 514.831 336.62 514.91 338.622C514.43 339.192 514.77 338.782 514.67 338.912H514.36H514.06H513.46L512.34 338.992L510.44 339.102C509.853 339.187 509.257 339.187 508.67 339.102C509.231 338.909 509.817 338.798 510.41 338.772L512.3 338.552L513.42 338.442L514.02 338.392H514.32H514.62C514.52 338.512 514.86 338.112 514.39 338.672C514.137 336.683 514.053 334.675 514.14 332.672Z" fill="#E0E0E0"/>
<path d="M512.25 310.281C512.935 313.971 513.27 317.718 513.25 321.471C512.837 319.641 512.592 317.776 512.52 315.901C512.262 314.04 512.172 312.159 512.25 310.281Z" fill="#E0E0E0"/>
<path d="M510.36 287.902C510.78 289.732 511.028 291.597 511.1 293.472C511.341 295.335 511.411 297.217 511.31 299.092C510.891 297.26 510.647 295.391 510.58 293.512C510.339 291.653 510.265 289.775 510.36 287.902Z" fill="#E0E0E0"/>
<path d="M502.93 271.233C504.905 270.81 506.912 270.556 508.93 270.473L509.21 270.713V271.003V271.303C509.21 271.513 509.21 271.703 509.21 271.903C509.21 272.283 509.26 272.653 509.29 273.023C509.29 273.683 509.36 274.313 509.39 274.933C509.478 275.516 509.478 276.109 509.39 276.693C509.196 276.135 509.084 275.552 509.06 274.963C508.99 274.353 508.92 273.723 508.84 273.063C508.84 272.703 508.77 272.323 508.73 271.943L508.68 271.353V271.043V270.763L508.97 271.003C506.967 271.249 504.946 271.325 502.93 271.233Z" fill="#E0E0E0"/>
<path d="M475.8 273.52C478.03 273.076 480.289 272.798 482.56 272.69C484.815 272.407 487.089 272.303 489.36 272.38C487.13 272.825 484.871 273.102 482.6 273.21C480.345 273.494 478.071 273.597 475.8 273.52Z" fill="#E0E0E0"/>
<path d="M448.66 275.81C450.89 275.366 453.149 275.088 455.42 274.98C457.679 274.703 459.955 274.599 462.23 274.67C459.997 275.113 457.734 275.391 455.46 275.5C453.205 275.784 450.931 275.887 448.66 275.81Z" fill="#E0E0E0"/>
<path d="M429.61 283.444C429.188 281.486 428.934 279.495 428.85 277.494C429.32 276.924 428.98 277.334 429.09 277.214H429.39H429.7L430.29 277.164L431.41 277.084L433.32 276.974C433.907 276.889 434.503 276.889 435.09 276.974C434.528 277.165 433.943 277.276 433.35 277.304L431.45 277.524L430.33 277.634L429.74 277.684H429.44H429.13L429.37 277.404C429.632 279.406 429.712 281.427 429.61 283.444Z" fill="#E0E0E0"/>
<path d="M431.5 305.831C431.088 303.997 430.844 302.129 430.77 300.251C430.523 298.391 430.452 296.513 430.56 294.641C430.973 296.471 431.218 298.336 431.29 300.211C431.537 302.073 431.608 303.955 431.5 305.831Z" fill="#E0E0E0"/>
<path d="M433.39 328.213C432.977 326.383 432.732 324.519 432.66 322.643C432.413 320.781 432.342 318.899 432.45 317.023C432.863 318.857 433.107 320.725 433.18 322.603C433.427 324.463 433.498 326.341 433.39 328.213Z" fill="#E0E0E0"/>
<path d="M237.68 360.513L266.89 315.043L288.81 340.633L301.34 325.223L330.1 353.943L237.68 360.513Z" fill="#368AC8"/>
<path d="M295 307.723C295.103 309.163 294.777 310.602 294.062 311.857C293.348 313.111 292.277 314.126 290.986 314.772C289.695 315.419 288.241 315.668 286.809 315.488C285.376 315.308 284.029 314.707 282.938 313.761C281.846 312.816 281.06 311.567 280.678 310.175C280.297 308.782 280.336 307.308 280.793 305.938C281.249 304.568 282.101 303.364 283.242 302.479C284.382 301.593 285.76 301.066 287.2 300.963C289.13 300.828 291.035 301.464 292.497 302.731C293.959 303.998 294.859 305.793 295 307.723Z" fill="#368AC8"/>
<g opacity="0.2">
<path opacity="0.2" d="M237.68 360.513L266.89 315.043L288.81 340.633L301.34 325.223L330.1 353.943L237.68 360.513Z" fill="black"/>
</g>
<g opacity="0.2">
<path opacity="0.2" d="M295 307.723C295.103 309.163 294.777 310.602 294.062 311.857C293.348 313.111 292.277 314.126 290.986 314.772C289.695 315.419 288.241 315.668 286.809 315.488C285.376 315.308 284.029 314.707 282.938 313.761C281.846 312.816 281.06 311.567 280.678 310.175C280.297 308.782 280.336 307.308 280.793 305.938C281.249 304.568 282.101 303.364 283.242 302.479C284.382 301.593 285.76 301.066 287.2 300.963C289.13 300.828 291.035 301.464 292.497 302.731C293.959 303.998 294.859 305.793 295 307.723Z" fill="black"/>
</g>
<path d="M421.51 296.443C421.51 296.593 403.56 298.363 381.39 300.443C359.22 302.523 341.23 304.033 341.21 303.883C341.19 303.733 359.21 301.973 381.34 299.883C403.47 297.793 421.5 296.303 421.51 296.443Z" fill="#263238"/>
<path d="M423.84 309.802C423.84 309.952 405.68 311.742 383.27 313.802C360.86 315.862 342.66 317.432 342.64 317.292C342.62 317.152 360.79 315.352 383.22 313.292C405.65 311.232 423.82 309.662 423.84 309.802Z" fill="#263238"/>
<path d="M426.16 323.173C426.16 323.313 407.81 325.123 385.16 327.173C362.51 329.223 344.16 330.843 344.16 330.703C344.16 330.563 362.5 328.753 385.16 326.653C407.82 324.553 426.15 323.003 426.16 323.173Z" fill="#263238"/>
<path d="M426.64 336.411C426.64 336.561 408.27 338.411 385.59 340.471C362.91 342.531 344.49 344.141 344.48 344.001C344.47 343.861 362.85 342.001 385.54 339.951C408.23 337.901 426.63 336.271 426.64 336.411Z" fill="#263238"/>
<path d="M381.676 287.622L339.402 291.016L339.67 294.365L381.944 290.971L381.676 287.622Z" fill="#368AC8"/>
<path d="M472.82 318.513C472.68 318.513 472.13 313.593 471.6 307.513C471.07 301.433 470.76 296.463 470.91 296.453C471.06 296.443 471.59 301.373 472.12 307.453C472.65 313.533 473 318.503 472.82 318.513Z" fill="#E0E0E0"/>
<path d="M482.06 306.943C482.06 307.083 477.32 307.503 471.46 307.873C465.6 308.243 460.83 308.433 460.83 308.293C464.345 307.8 467.883 307.486 471.43 307.353C477.29 307.003 482.05 306.803 482.06 306.943Z" fill="#E0E0E0"/>
<path d="M518.42 259.73C518.42 259.73 518.18 259.66 517.71 259.48L515.71 258.7L507.83 255.64L478.7 244.23L381.42 205.89H381.63L369.32 212L267.32 262.53L236.4 277.78L228 281.9L225.8 282.96C225.31 283.2 225.05 283.31 225.05 283.31L225.78 282.91L227.95 281.81L236.33 277.6L267.19 262.19L369.11 211.52L381.42 205.41H381.52H381.63L478.85 243.9L507.85 255.46L515.69 258.61L517.69 259.44L518.42 259.73Z" fill="#263238"/>
<path d="M458.68 120.003C458.152 118.838 457.302 117.85 456.23 117.153C455.158 116.457 453.909 116.083 452.631 116.074C451.352 116.066 450.098 116.424 449.017 117.106C447.936 117.788 447.073 118.765 446.53 119.923L436.08 120.783L446.64 141.613L453.26 129.433C453.987 129.364 454.698 129.172 455.36 128.863C456.16 128.499 456.88 127.981 457.48 127.339C458.079 126.697 458.547 125.943 458.855 125.12C459.163 124.298 459.307 123.422 459.277 122.544C459.247 121.666 459.044 120.802 458.68 120.003Z" fill="#263238"/>
<path d="M398.36 89.8409L405.18 86.9309L388.73 82.7909C388.003 81.6562 386.95 80.7677 385.709 80.2416C384.468 79.7155 383.097 79.5765 381.776 79.8428C380.455 80.1091 379.245 80.7682 378.304 81.7338C377.364 82.6994 376.738 83.9265 376.507 85.2544C376.276 86.5822 376.451 87.9488 377.01 89.1752C377.569 90.4017 378.485 91.4307 379.639 92.1275C380.793 92.8243 382.13 93.1564 383.475 93.0803C384.821 93.0042 386.112 92.5234 387.18 91.7009L402.8 101.261L398.36 89.8409Z" fill="#263238"/>
<path d="M530 294.301V294.161L417.11 83.7213L416.47 82.5312L398.69 90.6413L483.82 315.001L483.87 315.141L534.57 395.731L535.57 395.581L536.74 395.411L537.66 395.271L527.17 378.601L533.3 362.811L549.53 368.811L556.68 392.461L557.53 392.341L558.61 392.181L559.61 392.041L530 294.301ZM537.3 328.391L517.04 323.191L528.79 300.241L537.3 328.391ZM515.25 322.731L490.33 316.331L527.11 299.571L515.25 322.731ZM524.66 290.371L498.77 283.211L509.39 261.901L524.66 290.371ZM497 282.731L474.21 276.431L507.76 261.141L497 282.731ZM506.23 256.001L482.37 247.681L490.88 227.381L506.23 256.001ZM480.67 247.091L459.67 239.781L489.36 226.261L480.67 247.091ZM487.5 221.091L465.79 211.711L472.22 192.591L487.5 221.091ZM464.13 211.001L445.53 203.001L470.68 191.541L464.13 211.001ZM469.13 186.791L469.01 186.851L449.48 176.291L453.82 158.241L469.13 186.791ZM449.87 150.901L432.87 139.461L435.12 123.341L449.87 150.901ZM431.17 138.341L417.48 129.141L433.48 121.851L431.17 138.341ZM416.66 89.0013L431.12 116.001L416.25 103.471L416.66 89.0013ZM413.9 122.631L403.4 95.0013L414.4 104.281L413.9 122.631ZM414.49 101.951L402.68 92.0013L414.93 86.4212L414.49 101.951ZM416.18 105.741L430.49 117.741L415.64 124.511L416.18 105.741ZM417.11 131.081L430.9 140.341L428.12 160.131L417.11 131.081ZM432.56 141.461L449.13 152.591L429.76 161.411L432.56 141.461ZM452.33 156.571L447.81 175.381L431 166.271L452.33 156.571ZM431.33 168.511L447.39 177.191L442.44 197.791L431.33 168.511ZM449.03 178.081L466.94 187.761L444.19 198.101L449.03 178.081ZM445.03 204.701L463.54 212.701L456.27 234.331L445.03 204.701ZM465.2 213.411L485.95 222.411L457.88 235.191L465.2 213.411ZM458.96 241.411L479.96 248.731L470.4 271.561L458.96 241.411ZM481.67 249.331L504.39 257.251L472.21 271.901L481.67 249.331ZM472.81 277.921L496.19 284.381L484.31 308.221L472.81 277.921ZM498 284.861L523.41 291.861L486.01 308.861L498 284.861ZM489 317.861L514.48 324.401L504.89 343.121L489 317.861ZM516.27 324.861L537 330.181L506.28 344.181L516.27 324.861ZM526.05 376.761L512.44 355.121L531.68 362.251L526.05 376.761ZM532.33 360.571L510.87 352.571L510.34 351.741L540.34 338.091L540.65 339.091L532.33 360.571ZM534.02 361.191L541.42 342.001L548.9 366.741L534.02 361.191Z" fill="#263238"/>
<path d="M381.35 183.29C381.35 183.29 381.35 182.69 381.35 181.51C381.35 180.33 381.35 178.59 381.35 176.31C381.35 171.74 381.35 165.02 381.29 156.41C381.29 139.18 381.24 114.41 381.2 84.1103V83.9203H381.39L413 80.5703H413.11L413.19 80.6603L495.64 172.81L615.64 307.13L652 347.86L661.86 358.96L664.41 361.85C664.98 362.5 665.27 362.85 665.27 362.85C665.27 362.85 664.96 362.53 664.37 361.85C663.78 361.17 662.91 360.25 661.78 358.99C659.5 356.47 656.16 352.75 651.85 347.99L615.41 307.35L495.26 173.15L412.86 81.0003L413.05 81.0803L381.37 84.3603L381.55 84.1603C381.55 114.44 381.49 139.23 381.46 156.46C381.46 165.07 381.46 171.79 381.46 176.36C381.46 178.64 381.46 180.36 381.46 181.56C381.46 182.76 381.35 183.29 381.35 183.29Z" fill="#263238"/>
<path d="M383.17 155.043H378.87C378.66 155.043 378.49 155.213 378.49 155.423V165.513C378.49 165.723 378.66 165.893 378.87 165.893H383.17C383.38 165.893 383.55 165.723 383.55 165.513V155.423C383.55 155.213 383.38 155.043 383.17 155.043Z" fill="#263238"/>
<path d="M389.61 167.571H373C372.509 167.571 372.039 167.376 371.692 167.029C371.345 166.682 371.15 166.212 371.15 165.721C371.15 165.23 371.345 164.76 371.692 164.413C372.039 164.066 372.509 163.871 373 163.871H389.62C390.111 163.871 390.581 164.066 390.928 164.413C391.275 164.76 391.47 165.23 391.47 165.721C391.47 165.965 391.422 166.206 391.328 166.431C391.235 166.656 391.097 166.861 390.925 167.033C390.752 167.205 390.547 167.341 390.321 167.433C390.095 167.526 389.854 167.572 389.61 167.571Z" fill="#263238"/>
<path d="M382.51 197.292L382.45 194.922L380 196.002C379.915 196.876 379.915 197.757 380 198.632C380.004 198.773 380.034 198.912 380.09 199.042C380.242 199.238 380.452 199.382 380.69 199.452C381.763 199.861 382.654 200.641 383.2 201.652C383.38 202.019 383.479 202.421 383.492 202.829C383.505 203.238 383.431 203.645 383.275 204.023C383.119 204.401 382.885 204.742 382.587 205.023C382.29 205.304 381.936 205.518 381.55 205.652C380.789 205.882 379.967 205.801 379.266 205.426C378.565 205.051 378.041 204.413 377.81 203.652C377.81 203.242 377.81 202.652 377.25 202.652C376.44 202.572 376.09 203.752 376.11 204.372C376.24 207.962 379.62 209.102 381.05 209.152C382.021 209.218 382.991 209.01 383.85 208.552C384.529 208.16 385.115 207.625 385.567 206.985C386.02 206.344 386.328 205.613 386.47 204.842C387.25 200.122 382.26 197.592 382.51 197.292Z" fill="#263238"/>
<path d="M384.6 196.111L395.22 170.561C395.44 170.028 395.526 169.449 395.469 168.875C395.412 168.302 395.215 167.751 394.894 167.271C394.574 166.792 394.141 166.399 393.632 166.126C393.124 165.854 392.557 165.712 391.98 165.711H370.75C370.173 165.709 369.604 165.85 369.094 166.122C368.584 166.393 368.15 166.787 367.829 167.267C367.508 167.747 367.311 168.299 367.255 168.874C367.2 169.449 367.287 170.028 367.51 170.561L378.12 196.111C378.386 196.751 378.836 197.297 379.413 197.681C379.99 198.066 380.667 198.271 381.36 198.271C382.053 198.271 382.73 198.066 383.307 197.681C383.884 197.297 384.333 196.751 384.6 196.111Z" fill="#E0E0E0"/>
<path d="M371.83 167.523L369.08 170.263C369.08 170.363 369.08 170.473 369.13 170.573L370.03 172.733L375.24 167.523H371.83Z" fill="#368AC8"/>
<path d="M382.08 167.523H378.66L371.03 175.153L372.04 177.563L382.08 167.523Z" fill="#368AC8"/>
<path d="M389.38 180.723L391.8 174.883L377.05 189.633L378.05 192.043L389.38 180.723Z" fill="#368AC8"/>
<path d="M387 186.57L379.11 194.46L379.37 195.1C379.484 195.386 379.658 195.644 379.881 195.856C380.103 196.068 380.369 196.23 380.66 196.33L384.57 192.41L387 186.57Z" fill="#368AC8"/>
<path d="M388.91 167.523H385.5L373.04 179.973L374.04 182.393L388.91 167.523Z" fill="#368AC8"/>
<path d="M393.75 169.512C393.716 169.079 393.545 168.668 393.263 168.337C392.982 168.007 392.602 167.774 392.18 167.672L375 184.802L376 187.222L393.75 169.512Z" fill="#368AC8"/>
<path d="M654.77 357.344H672.61C673.31 357.344 673.982 357.622 674.477 358.117C674.972 358.612 675.25 359.284 675.25 359.984V368.124H652.13V360.004C652.127 359.655 652.194 359.31 652.325 358.987C652.457 358.665 652.651 358.371 652.896 358.124C653.142 357.877 653.433 357.681 653.755 357.547C654.077 357.413 654.422 357.344 654.77 357.344Z" fill="#263238"/>
<path d="M611.73 365.441H607.94V342.901C607.942 341.904 608.097 340.912 608.4 339.961L610.31 334.061C610.322 334.038 610.34 334.019 610.362 334.005C610.384 333.992 610.409 333.984 610.435 333.984C610.461 333.984 610.486 333.992 610.508 334.005C610.53 334.019 610.548 334.038 610.56 334.061L612.79 338.061L612.2 339.891C611.89 340.861 611.732 341.873 611.73 342.891V365.441Z" fill="#263238"/>
<path d="M705.14 369.54C704.613 368.252 703.77 367.119 702.688 366.245C701.605 365.37 700.32 364.784 698.95 364.54L604.15 364.49V348.74C604.15 348.236 604.051 347.737 603.857 347.272C603.664 346.807 603.381 346.384 603.025 346.028C602.668 345.673 602.245 345.391 601.779 345.199C601.313 345.007 600.814 344.909 600.31 344.91H554.5C553.688 344.91 552.897 345.167 552.241 345.645C551.585 346.123 551.098 346.797 550.85 347.57L549.48 351.91H554.58C555.163 351.91 555.738 352.037 556.267 352.282C556.796 352.527 557.264 352.885 557.64 353.33C558.008 353.768 558.271 354.283 558.41 354.838C558.548 355.392 558.559 355.971 558.44 356.53L553.54 379.78C553.332 380.651 552.837 381.427 552.135 381.984C551.434 382.541 550.566 382.846 549.67 382.85H539.94C539.811 384.332 539.899 385.824 540.2 387.28L540.74 389.61L515.66 394.54C515.46 394.58 515.277 394.676 515.131 394.818C514.986 394.961 514.885 395.142 514.84 395.34L512.48 401.68C512.329 401.968 512.214 402.274 512.14 402.59C511.64 404.68 512.01 408.18 513.27 408.18H540.14L539 409.54L537.48 414.26H708.17C708.21 399 707.81 376 705.14 369.54ZM586.83 355.12L584.31 378C584.31 378.29 584.23 378.58 584.18 378.86C583.674 381.122 582.402 383.139 580.58 384.571C578.758 386.003 576.497 386.762 574.18 386.72H562.92C562.402 386.72 561.892 386.604 561.425 386.38C560.958 386.157 560.547 385.832 560.222 385.43C559.897 385.027 559.666 384.557 559.547 384.053C559.427 383.55 559.421 383.026 559.53 382.52L564.83 355.06C565.009 354.192 565.482 353.412 566.168 352.851C566.855 352.29 567.713 351.983 568.6 351.98H584C584.406 351.98 584.808 352.066 585.179 352.233C585.55 352.399 585.881 352.641 586.152 352.944C586.423 353.247 586.627 353.603 586.751 353.99C586.874 354.378 586.915 354.786 586.87 355.19L586.83 355.12Z" fill="#368AC8"/>
<path d="M628.81 425.641L556.16 426.641C555.69 426.641 554.85 425.241 554.85 424.771V416.661C554.85 416.433 554.941 416.214 555.102 416.053C555.263 415.891 555.482 415.801 555.71 415.801H628.81C628.922 415.801 629.034 415.823 629.138 415.866C629.241 415.91 629.336 415.973 629.415 416.053C629.494 416.133 629.556 416.228 629.598 416.332C629.64 416.437 629.661 416.548 629.66 416.661V424.771C629.663 424.884 629.643 424.997 629.601 425.102C629.56 425.208 629.497 425.304 629.418 425.385C629.339 425.466 629.244 425.53 629.14 425.574C629.035 425.618 628.923 425.641 628.81 425.641Z" fill="#455A64"/>
<path d="M586.83 355.121L584.31 378.001C584.31 378.291 584.23 378.571 584.18 378.861C583.682 381.126 582.412 383.148 580.588 384.58C578.764 386.012 576.498 386.765 574.18 386.711H562.94C562.422 386.709 561.911 386.592 561.444 386.367C560.978 386.143 560.567 385.817 560.242 385.414C559.917 385.01 559.687 384.539 559.567 384.035C559.447 383.532 559.441 383.007 559.55 382.501L564.85 355.041C565.031 354.174 565.504 353.395 566.19 352.834C566.876 352.273 567.734 351.965 568.62 351.961H584C584.407 351.963 584.809 352.05 585.18 352.217C585.55 352.384 585.882 352.628 586.153 352.931C586.423 353.235 586.627 353.592 586.751 353.98C586.874 354.367 586.915 354.777 586.87 355.181L586.83 355.121Z" fill="#368AC8"/>
<g style="mix-blend-mode:screen">
<path d="M708.23 416.244C708.305 415.624 708.226 414.996 708 414.414H537.69C537.465 414.996 537.383 415.624 537.45 416.244H708.23Z" fill="#368AC8"/>
</g>
<path d="M550.85 347.562L540.6 379.412C539.779 381.955 539.641 384.669 540.2 387.282L544.59 407.642H604.15V348.742C604.15 347.724 603.745 346.747 603.025 346.027C602.305 345.307 601.328 344.902 600.31 344.902H554.5C553.689 344.905 552.899 345.163 552.244 345.641C551.589 346.119 551.101 346.791 550.85 347.562Z" fill="#368AC8"/>
<path d="M562.94 386.65C562.423 386.65 561.912 386.534 561.445 386.31C560.978 386.087 560.567 385.762 560.242 385.36C559.917 384.957 559.686 384.487 559.567 383.983C559.447 383.48 559.441 382.956 559.55 382.45L564.85 354.99C565.029 354.122 565.502 353.342 566.188 352.781C566.875 352.22 567.733 351.913 568.62 351.91H584C584.409 351.915 584.812 352.006 585.183 352.179C585.553 352.351 585.883 352.6 586.15 352.91C586.421 353.214 586.625 353.571 586.749 353.959C586.873 354.346 586.914 354.756 586.87 355.16L584.31 378C584.31 378.29 584.23 378.58 584.18 378.86C583.674 381.122 582.402 383.139 580.58 384.571C578.758 386.003 576.497 386.762 574.18 386.72L562.94 386.65Z" fill="#455A64"/>
<path d="M539.94 382.901C540.036 381.778 540.264 380.67 540.62 379.601L549.52 351.961H554.61C555.192 351.959 555.767 352.085 556.296 352.328C556.824 352.572 557.293 352.927 557.67 353.371C558.04 353.809 558.305 354.326 558.445 354.883C558.585 355.439 558.597 356.02 558.48 356.581L553.57 379.821C553.364 380.692 552.872 381.469 552.172 382.028C551.472 382.586 550.605 382.894 549.71 382.901H539.94Z" fill="#455A64"/>
<path d="M708.31 418.771H537.67C536.37 418.771 536.37 414.051 537.67 414.051H708.31C709.62 414.051 709.62 418.771 708.31 418.771Z" fill="#263238"/>
<path d="M604.3 365.742C604.3 365.742 604.3 365.832 604.3 366.002V366.742C604.3 367.432 604.3 368.382 604.24 369.582C604.16 372.092 604.05 375.652 603.92 380.032C603.79 384.412 603.58 389.712 603.38 395.532C603.32 396.992 603.27 398.532 603.21 400.012C603.235 401.615 602.893 403.202 602.21 404.652C601.788 405.389 601.223 406.034 600.548 406.55C599.873 407.065 599.102 407.44 598.28 407.652C596.651 408.091 594.967 408.293 593.28 408.252L558.77 407.602L548.32 407.342L545.48 407.242H544.74C544.657 407.255 544.573 407.255 544.49 407.242C544.573 407.227 544.657 407.227 544.74 407.242H548.32L558.78 407.342L593.28 407.832C594.919 407.881 596.555 407.692 598.14 407.272C598.894 407.086 599.603 406.751 600.227 406.287C600.85 405.824 601.375 405.241 601.77 404.572C602.437 403.195 602.779 401.683 602.77 400.152C602.84 398.632 602.9 397.152 602.96 395.672C603.2 389.852 603.42 384.602 603.61 380.182C603.8 375.762 603.98 372.242 604.1 369.732C604.16 368.532 604.22 367.582 604.25 366.892C604.25 366.592 604.25 366.352 604.31 366.162C604.264 366.027 604.26 365.88 604.3 365.742Z" fill="#263238"/>
<path d="M555.67 407.881C555.52 407.881 555.41 402.881 555.41 396.711C555.41 390.541 555.52 385.531 555.67 385.531C555.82 385.531 555.93 390.531 555.93 396.711C555.93 402.891 555.81 407.881 555.67 407.881Z" fill="#263238"/>
<path d="M564.6 345.094C564.574 345.634 564.511 346.172 564.41 346.704C564.26 347.704 564.01 349.234 563.68 351.074C563.03 354.754 562.04 359.824 560.8 365.384C559.56 370.944 558.28 375.964 557.3 379.564C556.81 381.374 556.4 382.824 556.09 383.824C555.964 384.352 555.79 384.867 555.57 385.364C555.641 384.826 555.751 384.295 555.9 383.774C556.17 382.674 556.52 381.224 556.95 379.474C557.83 375.844 559.04 370.834 560.29 365.274C561.54 359.714 562.58 354.664 563.29 351.004L564.18 346.674C564.266 346.134 564.407 345.605 564.6 345.094Z" fill="#263238"/>
<path d="M584.35 395.743C584.678 395.666 584.992 395.538 585.28 395.363C585.589 395.131 585.813 394.804 585.92 394.433C586.042 393.948 585.978 393.434 585.74 392.993C585.589 392.739 585.371 392.532 585.11 392.394C584.849 392.257 584.555 392.194 584.26 392.213H581.99H576.8C576.414 392.219 576.044 392.37 575.763 392.634C575.482 392.899 575.31 393.258 575.28 393.643C575.222 394.003 575.29 394.371 575.472 394.686C575.654 395.002 575.94 395.244 576.28 395.373C576.44 395.433 576.609 395.463 576.78 395.463H578.45H580.45C581.66 395.463 582.64 395.513 583.31 395.543C583.663 395.528 584.016 395.562 584.36 395.643C584.016 395.725 583.663 395.758 583.31 395.743C582.64 395.743 581.66 395.803 580.45 395.823H578.45H576.8C576.576 395.825 576.353 395.791 576.14 395.723C575.692 395.563 575.312 395.255 575.063 394.849C574.814 394.444 574.71 393.965 574.77 393.493C574.793 392.978 575.014 392.493 575.387 392.137C575.759 391.781 576.255 391.583 576.77 391.583H581.96H584.23C584.592 391.571 584.951 391.658 585.269 391.834C585.586 392.01 585.849 392.269 586.03 392.583C586.179 392.864 586.261 393.175 586.27 393.493C586.288 393.767 586.254 394.042 586.17 394.303C586.025 394.721 585.738 395.074 585.36 395.303C585.132 395.45 584.871 395.536 584.6 395.553C584.44 395.783 584.35 395.753 584.35 395.743Z" fill="#368AC8"/>
<path d="M697.09 371.201C697.09 371.351 690.09 371.461 681.51 371.461C672.93 371.461 665.93 371.351 665.93 371.201C665.93 371.051 672.93 370.941 681.51 370.941C690.09 370.941 697.09 371.061 697.09 371.201Z" fill="#263238"/>
<path d="M697.09 374.303C697.09 374.453 690.09 374.573 681.51 374.573C672.93 374.573 665.93 374.453 665.93 374.303C665.93 374.153 672.93 374.043 681.51 374.043C690.09 374.043 697.09 374.163 697.09 374.303Z" fill="#263238"/>
<path d="M697.09 377.412C697.09 377.552 690.09 377.672 681.51 377.672C672.93 377.672 665.93 377.552 665.93 377.412C665.93 377.272 672.93 377.152 681.51 377.152C690.09 377.152 697.09 377.262 697.09 377.412Z" fill="#263238"/>
<path d="M697.09 380.51C697.09 380.65 690.09 380.77 681.51 380.77C672.93 380.77 665.93 380.65 665.93 380.51C665.93 380.37 672.93 380.25 681.51 380.25C690.09 380.25 697.09 380.36 697.09 380.51Z" fill="#263238"/>
<path d="M697.09 383.612C697.09 383.752 690.09 383.872 681.51 383.872C672.93 383.872 665.93 383.752 665.93 383.612C665.93 383.472 672.93 383.352 681.51 383.352C690.09 383.352 697.09 383.462 697.09 383.612Z" fill="#263238"/>
<path d="M697.09 386.713C697.09 386.853 690.09 386.973 681.51 386.973C672.93 386.973 665.93 386.853 665.93 386.713C665.93 386.573 672.93 386.453 681.51 386.453C690.09 386.453 697.09 386.563 697.09 386.713Z" fill="#263238"/>
<path d="M697.09 389.811C697.09 389.951 690.09 390.071 681.51 390.071C672.93 390.071 665.93 389.951 665.93 389.811C665.93 389.671 672.93 389.551 681.51 389.551C690.09 389.551 697.09 389.661 697.09 389.811Z" fill="#263238"/>
<path d="M520.2 463.463C510.85 463.463 502.98 454.463 502.98 445.083C502.98 435.703 511.21 427.843 520.56 427.843L671.19 421.003C675.013 420.793 678.817 421.672 682.161 423.538C685.505 425.404 688.251 428.179 690.08 431.543C692.309 435.837 692.906 440.793 691.76 445.493C687.76 463.693 672.65 463.493 666.76 463.083C660.87 462.673 520.2 463.463 520.2 463.463Z" fill="#263238"/>
<path d="M520.2 459.042C527.971 459.042 534.27 452.743 534.27 444.972C534.27 437.202 527.971 430.902 520.2 430.902C512.429 430.902 506.13 437.202 506.13 444.972C506.13 452.743 512.429 459.042 520.2 459.042Z" fill="#455A64"/>
<path d="M670.24 460.31C680.292 460.31 688.44 452.162 688.44 442.11C688.44 432.059 680.292 423.91 670.24 423.91C660.188 423.91 652.04 432.059 652.04 442.11C652.04 452.162 660.188 460.31 670.24 460.31Z" fill="#455A64"/>
<path d="M672.27 424.492L671.88 424.552L670.73 424.682L666.31 425.122C662.46 425.502 656.9 426.002 650.01 426.562C636.25 427.692 617.21 429.002 596.16 429.932C575.11 430.862 556.01 431.232 542.16 431.312C535.25 431.312 529.67 431.312 525.8 431.312L521.36 431.252H520.2C520.07 431.268 519.94 431.268 519.81 431.252H520.2H521.36H525.8L542.16 431.092C555.96 430.912 575.04 430.482 596.09 429.562C617.14 428.642 636.18 427.382 649.94 426.342L666.25 425.072L670.68 424.722L671.84 424.652C671.975 424.579 672.12 424.525 672.27 424.492Z" fill="#455A64"/>
<path d="M666.48 458.592C666.48 458.732 633.73 458.852 593.33 458.852C552.93 458.852 520.18 458.732 520.18 458.592C520.18 458.452 552.92 458.332 593.33 458.332C633.74 458.332 666.48 458.442 666.48 458.592Z" fill="#455A64"/>
<path d="M545.29 407.394C544.893 406.233 544.559 405.051 544.29 403.854C543.68 401.664 542.79 398.644 541.89 395.274C541.078 392.41 540.45 389.497 540.01 386.554C539.895 385.655 539.842 384.75 539.85 383.844C539.842 383.506 539.886 383.169 539.98 382.844C540.06 382.844 539.98 384.254 540.37 386.484C540.76 388.714 541.49 391.784 542.37 395.134C543.25 398.484 544.11 401.524 544.63 403.754C544.89 404.864 545.09 405.754 545.19 406.394C545.272 406.72 545.305 407.057 545.29 407.394Z" fill="#368AC8"/>
<path d="M660.22 453.351C659.841 453.168 659.488 452.936 659.17 452.661C658.282 451.947 657.495 451.116 656.83 450.191C655.83 448.812 655.088 447.264 654.64 445.621C654.057 443.606 653.961 441.482 654.361 439.423C654.761 437.365 655.645 435.431 656.94 433.781C657.973 432.43 659.24 431.275 660.68 430.371C661.648 429.763 662.695 429.289 663.79 428.961C664.184 428.826 664.594 428.742 665.01 428.711C663.563 429.22 662.177 429.891 660.88 430.711C659.512 431.633 658.308 432.779 657.32 434.101C656.093 435.706 655.254 437.573 654.869 439.556C654.484 441.538 654.563 443.584 655.1 445.531C655.502 447.126 656.179 448.639 657.1 450.001C658.005 451.237 659.052 452.361 660.22 453.351Z" fill="#FAFAFA"/>
<path d="M581.16 367.844C578.656 369.974 576.046 371.977 573.34 373.844C570.735 375.838 568.024 377.691 565.22 379.394C567.724 377.263 570.334 375.261 573.04 373.394C575.645 371.4 578.356 369.547 581.16 367.844Z" fill="white"/>
<path d="M582.36 363.594C580.194 365.423 577.92 367.119 575.55 368.674C573.277 370.368 570.903 371.921 568.44 373.324C570.609 371.499 572.882 369.802 575.25 368.244C577.524 366.551 579.898 364.998 582.36 363.594Z" fill="white"/>
<path d="M553 370.152C551.965 371.196 550.807 372.11 549.55 372.872C548.391 373.783 547.129 374.555 545.79 375.172C546.836 374.136 547.996 373.224 549.25 372.452C550.405 371.54 551.664 370.768 553 370.152Z" fill="white"/>
<path d="M555.05 366.172C552.53 368.561 549.78 370.694 546.84 372.542C549.355 370.147 552.105 368.013 555.05 366.172Z" fill="white"/>
<path d="M586.45 390.502C582.731 390.849 578.989 390.849 575.27 390.502C578.989 390.156 582.731 390.156 586.45 390.502Z" fill="#368AC8"/>
<path d="M517.4 456.913C516.983 456.887 516.572 456.799 516.18 456.653C515.084 456.304 514.047 455.795 513.1 455.143C511.693 454.17 510.488 452.934 509.55 451.503C508.365 449.755 507.662 447.724 507.513 445.617C507.363 443.51 507.773 441.401 508.7 439.503C509.422 437.953 510.441 436.56 511.7 435.403C512.544 434.621 513.502 433.97 514.54 433.473C514.911 433.281 515.304 433.137 515.71 433.043C514.351 433.753 513.091 434.637 511.96 435.673C510.776 436.819 509.816 438.175 509.13 439.673C508.26 441.505 507.878 443.531 508.02 445.554C508.161 447.578 508.823 449.53 509.94 451.223C510.828 452.624 511.971 453.845 513.31 454.823C514.575 455.698 515.95 456.401 517.4 456.913Z" fill="#FAFAFA"/>
<path d="M538.74 401.401C538.74 401.541 533.32 401.661 526.63 401.661C519.94 401.661 514.51 401.541 514.51 401.401C514.51 401.261 519.93 401.141 526.63 401.141C533.33 401.141 538.74 401.261 538.74 401.401Z" fill="white"/>
<path d="M429.52 105.102L420.4 85.5119C419.729 84.0711 418.781 82.7766 417.61 81.7024C416.439 80.6281 415.067 79.7951 413.574 79.2509C412.081 78.7067 410.495 78.4621 408.907 78.5309C407.319 78.5997 405.761 78.9806 404.32 79.6519C402.879 80.3228 401.585 81.2709 400.51 82.4421C399.436 83.6134 398.603 84.9848 398.059 86.478C397.515 87.9712 397.27 89.557 397.339 91.1448C397.408 92.7326 397.789 94.2913 398.46 95.7319L407.59 115.312C407.63 115.403 407.688 115.485 407.76 115.554C407.833 115.622 407.919 115.674 408.012 115.708C408.106 115.742 408.205 115.756 408.305 115.75C408.404 115.743 408.501 115.717 408.59 115.672L429.19 106.072C429.361 105.986 429.492 105.836 429.554 105.655C429.616 105.473 429.603 105.275 429.52 105.102Z" fill="#368AC8"/>
<path d="M79.9 368.594H74.76V463.084H79.9V368.594Z" fill="#E0E0E0"/>
<path d="M82.53 365.352C82.53 366.376 82.2262 367.378 81.657 368.23C81.0878 369.082 80.2788 369.745 79.3323 370.138C78.3858 370.53 77.3442 370.632 76.3394 370.432C75.3346 370.232 74.4116 369.739 73.6872 369.015C72.9627 368.29 72.4694 367.367 72.2695 366.362C72.0696 365.358 72.1722 364.316 72.5643 363.37C72.9563 362.423 73.6203 361.614 74.4721 361.045C75.324 360.476 76.3255 360.172 77.35 360.172C78.7238 360.172 80.0414 360.718 81.0128 361.689C81.9842 362.66 82.53 363.978 82.53 365.352Z" fill="#368AC8"/>
<path d="M182.04 368.594H176.9V463.084H182.04V368.594Z" fill="#E0E0E0"/>
<path d="M184.67 365.352C184.67 366.376 184.366 367.378 183.797 368.23C183.228 369.082 182.419 369.745 181.472 370.138C180.526 370.53 179.484 370.632 178.479 370.432C177.475 370.232 176.552 369.739 175.827 369.015C175.103 368.29 174.609 367.367 174.41 366.362C174.21 365.358 174.312 364.316 174.704 363.37C175.096 362.423 175.76 361.614 176.612 361.045C177.464 360.476 178.466 360.172 179.49 360.172C180.864 360.172 182.181 360.718 183.153 361.689C184.124 362.66 184.67 363.978 184.67 365.352Z" fill="#368AC8"/>
<path d="M191.78 377.711H60.09V401.271H191.78V377.711Z" fill="#368AC8"/>
<path d="M74.99 377.703L74.76 378.103L61.23 401.273H60.09V377.703H74.99Z" fill="#F5F5F5"/>
<path d="M108.28 377.703L94.5 401.273H76.51L81.98 391.913L90.28 377.703H108.28Z" fill="#F5F5F5"/>
<path d="M141.55 377.703L127.78 401.273H109.78L123.55 377.703H141.55Z" fill="#F5F5F5"/>
<path d="M174.81 377.711L161.04 401.271H143.05L156.82 377.711H174.81Z" fill="#F5F5F5"/>
<path d="M191.78 377.711V401.271H176.32L190.1 377.711H191.78Z" fill="#F5F5F5"/>
<path d="M191.78 414.102H60.09V437.662H191.78V414.102Z" fill="#368AC8"/>
<path d="M74.99 414.113L74.76 414.503L61.23 437.673H60.09V414.113H74.99Z" fill="#F5F5F5"/>
<path d="M108.28 414.113L94.5 437.673H76.51L81.98 428.313L90.28 414.113H108.28Z" fill="#F5F5F5"/>
<path d="M141.55 414.113L127.78 437.673H109.78L123.55 414.113H141.55Z" fill="#F5F5F5"/>
<path d="M174.81 414.113L161.04 437.673H143.05L156.82 414.113H174.81Z" fill="#F5F5F5"/>
<path d="M191.78 414.113V437.673H176.32L190.1 414.113H191.78Z" fill="#F5F5F5"/>
<path d="M191.78 401.271C191.78 401.271 191.78 401.131 191.78 400.861C191.78 400.591 191.78 400.191 191.78 399.681C191.78 398.631 191.78 397.101 191.78 395.101C191.78 391.101 191.73 385.221 191.7 377.711L191.84 377.841L60.1 378.001L60.36 377.741V401.301L60.1 401.041L153.85 401.151L181.65 401.231H189.16H191.11H191.79H191.14H189.22H181.77L154.03 401.301L60.1 401.411H59.84V377.441H60.11L191.79 377.571H191.92V377.711C191.92 385.251 191.86 391.151 191.85 395.181C191.85 397.181 191.85 398.691 191.85 399.731C191.85 400.231 191.85 400.611 191.85 400.891C191.85 401.171 191.78 401.271 191.78 401.271Z" fill="#263238"/>
<path d="M191.78 437.674C191.78 437.674 191.78 437.524 191.78 437.264C191.78 437.004 191.78 436.594 191.78 436.084C191.78 435.034 191.78 433.504 191.78 431.504C191.78 427.504 191.73 421.624 191.7 414.104L191.84 414.244L60.16 414.364L60.42 414.104V437.674L60.16 437.414L153.91 437.524L181.71 437.604H189.22H191.17C191.61 437.604 191.85 437.604 191.85 437.604H191.2H189.28H181.83L154.09 437.684L60.16 437.794H59.9V413.844H60.17L191.85 413.974H191.98V414.104C191.98 421.654 191.92 427.554 191.91 431.584C191.91 433.584 191.91 435.094 191.91 436.134C191.91 436.634 191.91 437.014 191.91 437.294C191.91 437.574 191.78 437.674 191.78 437.674Z" fill="#263238"/>
<path d="M701.78 463.459C701.78 463.599 556.36 463.719 377.02 463.719C197.68 463.719 52.22 463.599 52.22 463.459C52.22 463.319 197.61 463.199 377.02 463.199C556.43 463.199 701.78 463.309 701.78 463.459Z" fill="#263238"/>
</svg>
