<?xml version="1.0" encoding="UTF-8"?>
<svg version="1.1" xmlns="http://www.w3.org/2000/svg" width="512" height="512">
<path d="M0 0 C1.45108658 0.00273422 1.45108658 0.00273422 2.93148804 0.00552368 C17.26440977 0.05095174 31.21023917 0.55983928 45.3125 3.3125 C46.65803955 3.55395752 46.65803955 3.55395752 48.03076172 3.80029297 C107.84088904 14.62287989 165.35495829 48.68064457 202.3125 97.3125 C202.72918945 97.85277832 203.14587891 98.39305664 203.57519531 98.94970703 C211.2584873 108.9447116 218.00092968 119.40459036 224.3125 130.3125 C224.70679199 130.98974121 225.10108398 131.66698242 225.50732422 132.36474609 C238.68961173 155.2833756 247.29510918 180.85822563 252.625 206.6875 C252.77243652 207.39817627 252.91987305 208.10885254 253.07177734 208.84106445 C256.05713787 224.48358366 256.6873098 240.11919606 256.625 256 C256.62226578 257.45108658 256.62226578 257.45108658 256.61947632 258.93148804 C256.57404826 273.26440977 256.06516072 287.21023917 253.3125 301.3125 C253.15152832 302.20952637 252.99055664 303.10655273 252.82470703 304.03076172 C242.00212011 363.84088904 207.94435543 421.35495829 159.3125 458.3125 C158.77222168 458.72918945 158.23194336 459.14587891 157.67529297 459.57519531 C147.6802884 467.2584873 137.22040964 474.00092968 126.3125 480.3125 C125.63525879 480.70679199 124.95801758 481.10108398 124.26025391 481.50732422 C101.3416244 494.68961173 75.76677437 503.29510918 49.9375 508.625 C49.22682373 508.77243652 48.51614746 508.91987305 47.78393555 509.07177734 C32.14141634 512.05713787 16.50580394 512.6873098 0.625 512.625 C-0.34239105 512.62317719 -1.3097821 512.62135437 -2.30648804 512.61947632 C-16.63940977 512.57404826 -30.58523917 512.06516072 -44.6875 509.3125 C-45.58452637 509.15152832 -46.48155273 508.99055664 -47.40576172 508.82470703 C-107.21588904 498.00212011 -164.72995829 463.94435543 -201.6875 415.3125 C-202.10418945 414.77222168 -202.52087891 414.23194336 -202.95019531 413.67529297 C-210.6334873 403.6802884 -217.37592968 393.22040964 -223.6875 382.3125 C-224.08179199 381.63525879 -224.47608398 380.95801758 -224.88232422 380.26025391 C-238.06461173 357.3416244 -246.67010918 331.76677437 -252 305.9375 C-252.14743652 305.22682373 -252.29487305 304.51614746 -252.44677734 303.78393555 C-255.43213787 288.14141634 -256.0623098 272.50580394 -256 256.625 C-255.99817719 255.65760895 -255.99635437 254.6902179 -255.99447632 253.69351196 C-255.94904826 239.36059023 -255.44016072 225.41476083 -252.6875 211.3125 C-252.44604248 209.96696045 -252.44604248 209.96696045 -252.19970703 208.59423828 C-241.37712011 148.78411096 -207.31935543 91.27004171 -158.6875 54.3125 C-158.14722168 53.89581055 -157.60694336 53.47912109 -157.05029297 53.04980469 C-147.0552884 45.3665127 -136.59540964 38.62407032 -125.6875 32.3125 C-125.01025879 31.91820801 -124.33301758 31.52391602 -123.63525391 31.11767578 C-100.7166244 17.93538827 -75.14177437 9.32989082 -49.3125 4 C-48.60182373 3.85256348 -47.89114746 3.70512695 -47.15893555 3.55322266 C-31.51641634 0.56786213 -15.88080394 -0.0623098 0 0 Z " fill="#F05249" transform="translate(255.6875,-0.3125)"/>
<path d="M0 0 C7.04106466 5.78557894 13.44579135 12.21509409 19.92773438 18.60791016 C21.23075852 19.88990975 22.53389257 21.17179764 23.83712769 22.45358276 C35.67554649 34.10509922 47.47259087 45.79864903 59.2587204 57.50303078 C67.17527004 65.36348566 75.10375974 73.21107033 83.06347656 81.02783203 C90.02226647 87.86164636 96.95794234 94.71793407 103.86643076 101.60260999 C107.51942545 105.24153752 111.18274923 108.86844009 114.87382507 112.46876907 C118.34323504 115.85373089 121.78065747 119.2681666 125.19617081 122.70747757 C126.45270983 123.96204033 127.72039302 125.20555715 128.99985886 126.43672943 C138.6472549 135.73826877 138.6472549 135.73826877 139.51870728 141.32584763 C139.28592946 144.36237822 138.7643934 147.05857368 138 150 C137.81594721 151.61438615 137.65360069 153.23163125 137.52734375 154.8515625 C131.81757386 203.85362338 104.8594598 249.94725527 71 285 C70.40106934 285.62084473 69.80213867 286.24168945 69.18505859 286.88134766 C61.52123497 294.78250259 53.78001606 302.32766955 45 309 C44.45972168 309.41668945 43.91944336 309.83337891 43.36279297 310.26269531 C30.60709305 320.06817027 17.01658472 328.4101816 2.875 336.0625 C2.20098145 336.43262207 1.52696289 336.80274414 0.83251953 337.18408203 C-3.00036211 339.20955762 -6.55017757 340.47793595 -10.81152344 341.42944336 C-15.3637651 342.61625603 -19.69086928 344.52986222 -24.0625 346.25 C-41.60869723 352.97823086 -64.87129176 361.84789246 -84 360 C-86.3531856 358.32223537 -88.07215628 356.84800294 -90.04283142 354.7989502 C-90.60825907 354.23950352 -91.17368672 353.68005685 -91.75624853 353.10365725 C-93.64481252 351.2266147 -95.50728378 349.32566732 -97.37084961 347.42382812 C-98.7201148 346.07258826 -100.0709236 344.72288825 -101.42315674 343.37461853 C-105.08929119 339.71049385 -108.73343168 336.02517575 -112.37404323 332.33571434 C-116.1825202 328.48350112 -120.01080775 324.65108046 -123.83705139 320.81652832 C-131.07933181 313.5524845 -138.30358293 306.27078032 -145.52154881 298.98258448 C-153.73989383 290.68601863 -161.97810623 282.40930261 -170.21805942 274.13420582 C-187.16759455 257.11148755 -204.09198843 240.06395559 -221 223 C-220.01 222.67 -219.02 222.34 -218 222 C-217.53851563 222.51949219 -217.07703125 223.03898438 -216.6015625 223.57421875 C-209.98162024 230.65206215 -203.99681038 235.07153679 -194.046875 235.53881836 C-180.86270719 235.68683506 -173.99436578 230.75111728 -164.80273438 221.87915039 C-162.43815639 219.53683629 -160.09142478 217.17795495 -157.75 214.8125 C-156.46367676 213.52049683 -156.46367676 213.52049683 -155.15136719 212.20239258 C-152.43179111 209.4706888 -149.715488 206.73576725 -147 204 C-143.41961974 200.39288149 -139.83584819 196.78918198 -136.25 193.1875 C-135.03715332 191.96220581 -135.03715332 191.96220581 -133.79980469 190.7121582 C-129.55683849 186.45109363 -125.24069738 182.35390937 -120.66894531 178.44628906 C-118.680909 176.72347936 -116.82145086 174.89734464 -115 173 C-111.00914912 174.5983464 -108.36472923 177.39606945 -105.421875 180.41796875 C-104.89160706 180.95343826 -104.36133911 181.48890778 -103.81500244 182.04060364 C-102.12182944 183.75153752 -100.43547792 185.46898768 -98.75 187.1875 C-96.53990773 189.43441646 -94.32653784 191.67802883 -92.109375 193.91796875 C-91.57068787 194.46251709 -91.03200073 195.00706543 -90.47698975 195.56811523 C-87.71581103 198.34089509 -84.92416682 201.01022605 -81.9375 203.54296875 C-78.54844263 206.42154603 -75.46542586 209.55149908 -72.390625 212.7578125 C-71.37766366 213.80604708 -70.36464206 214.85422342 -69.3515625 215.90234375 C-67.79823191 217.51097565 -66.25108947 219.12384065 -64.71972656 220.75341797 C-56.70108569 229.26262912 -48.77538901 235.90445956 -36.5 236.625 C-23.07047281 235.79338771 -14.79366031 227.83317298 -5.92431641 218.67211914 C-3.99497047 216.68231286 -2.03754498 214.72380681 -0.07421875 212.76757812 C1.18143865 211.49651922 2.43540613 210.22378817 3.6875 208.94921875 C4.2635498 208.37185471 4.83959961 207.79449066 5.43310547 207.19963074 C13.32386113 198.98407985 15.46000959 190.84038799 15.33203125 179.6015625 C14.40792623 169.57774101 7.78337554 162.87276116 1 156 C0.29375488 155.28005859 -0.41249023 154.56011719 -1.14013672 153.81835938 C-11.22044594 143.42514288 -11.22044594 143.42514288 -21.87109375 133.6328125 C-27.3651076 128.90652111 -32.40116592 123.70540424 -37.5 118.5625 C-38.52320139 117.5342702 -39.54663733 116.50627374 -40.5703125 115.47851562 C-43.04957999 112.98835662 -45.52567538 110.49507167 -48 108 C-46.34800863 103.73267955 -43.14991497 100.87973636 -39.9609375 97.73046875 C-39.36125153 97.131241 -38.76156555 96.53201324 -38.14370728 95.91462708 C-36.87339709 94.64733463 -35.6006607 93.38247017 -34.32568359 92.11987305 C-32.3976141 90.20990182 -30.47750968 88.29220964 -28.55859375 86.37304688 C-23.12445994 80.95493317 -17.69619436 75.59665142 -11.8515625 70.61791992 C-8.01470191 67.26522014 -4.42615573 63.65192334 -0.8125 60.0625 C-0.03197266 59.30259766 0.74855469 58.54269531 1.55273438 57.75976562 C9.47386721 49.89238093 15.27006215 42.27303315 15.3125 30.6875 C15.04630335 18.94822775 11.23172897 13.26155408 3 5 C2.4121875 4.45085937 1.824375 3.90171875 1.21875 3.3359375 C0 2 0 2 0 0 Z " fill="#AD0E0E" transform="translate(370,149)"/>
<path d="M0 0 C3.20768437 2.86773956 6.26594381 5.84622324 9.3125 8.8828125 C10.74454721 10.28931145 12.17685391 11.69554621 13.609375 13.1015625 C25.30834287 24.65667509 25.30834287 24.65667509 29.546875 29.62109375 C34.62777162 35.51250229 40.23095203 40.90690117 45.75 46.3828125 C46.8745833 47.50236882 47.99893405 48.62215879 49.12304688 49.7421875 C51.85019344 52.45842784 54.58045907 55.17149542 57.3125 57.8828125 C63.40376557 52.90246828 68.87730841 47.38140541 74.37714577 41.77107048 C76.63102801 39.4746068 78.89469081 37.18788429 81.15773296 34.90045261 C85.35532003 30.65741455 89.54893876 26.41063906 93.72583008 22.1472168 C96.64715317 19.16613449 99.58085893 16.19773029 102.52283287 13.23703194 C103.63285912 12.11535488 104.73836527 10.98918392 105.83896828 9.8582592 C120.12849908 -4.81499164 120.12849908 -4.81499164 130.5078125 -5.7109375 C149.46618904 -5.25865019 157.08378 3.46778561 170.24658203 16.57666016 C171.70037725 18.02060248 173.16453409 19.45351381 174.62890625 20.88671875 C182.94209885 29.15404546 187.34833245 35.11536214 187.625 47.0703125 C187.42021817 60.0885861 181.13041181 67.03595787 172.3125 75.8828125 C170.90600105 77.31485971 169.49976629 78.74716641 168.09375 80.1796875 C156.54313472 91.87410207 156.54313472 91.87410207 151.54296875 96.1484375 C145.8410958 101.06587393 140.61115535 106.47798239 135.3125 111.8203125 C134.24112113 112.89671904 133.16950818 113.97289264 132.09765625 115.04882812 C129.49990362 117.65747995 126.90532038 120.26925721 124.3125 122.8828125 C125.91427782 126.86368415 128.69480594 129.53774424 131.6953125 132.49609375 C132.49495926 133.29505318 132.49495926 133.29505318 133.3107605 134.1101532 C134.43983517 135.23621171 135.57133441 136.3598437 136.70507812 137.48120117 C138.41585871 139.17389994 140.11867492 140.87428739 141.8203125 142.57617188 C146.85502697 147.5942255 151.91479921 152.50455075 157.31884766 157.12719727 C161.68939114 160.97590878 165.79896234 165.10086437 169.9375 169.1953125 C170.85273438 170.08154297 171.76796875 170.96777344 172.7109375 171.88085938 C180.85146218 179.94491959 187.4079668 187.68602288 187.5625 199.5078125 C187.39707471 211.90198401 183.63665764 216.98757803 175.3125 225.8828125 C174.42232178 226.83462402 173.53214355 227.78643555 172.61499023 228.76708984 C170.25879103 231.26772968 167.87056655 233.73503868 165.46606445 236.18920898 C164.48680176 237.1952159 163.51477489 238.20831611 162.55004883 239.22827148 C154.75482749 247.46028835 146.61509573 253.82602482 134.8125 254.5078125 C120.08057825 253.58413197 111.61572571 244.03775082 102.0625 234.0078125 C100.09411449 231.97416863 98.12063049 229.94557989 96.1463623 227.91764832 C94.87980446 226.61628904 93.61520877 225.31301697 92.35266113 224.00776672 C88.79834563 220.34650545 85.17304071 216.88398508 81.26660156 213.59667969 C76.72898139 209.61690787 72.55925127 205.23064413 68.3125 200.9453125 C67.33747614 199.9652594 66.3622172 198.9854401 65.38671875 198.00585938 C63.02633382 195.63378937 60.66833095 193.2594039 58.3125 190.8828125 C55.09619859 192.40884665 53.02480701 193.98082021 50.5625 196.5703125 C48.06602997 199.18741029 45.49028191 201.60510726 42.74121094 203.94970703 C37.94527081 208.13217434 33.51108305 212.62976355 29.0625 217.17578125 C27.30253076 218.95812421 25.54210019 220.74001174 23.78125 222.52148438 C21.03822306 225.30165237 18.2983991 228.08471804 15.56640625 230.87573242 C12.90760651 233.58912911 10.23618213 236.28955847 7.5625 238.98828125 C6.34965332 240.23680122 6.34965332 240.23680122 5.11230469 241.51054382 C-2.40486262 249.06197516 -9.40988626 253.03596831 -20.25 253.2578125 C-20.91580078 253.29519531 -21.58160156 253.33257812 -22.26757812 253.37109375 C-31.21772594 253.52467112 -37.50089425 249.22026787 -43.82417297 243.2850647 C-46.31550593 240.86860406 -48.75972871 238.4098522 -51.18505859 235.92724609 C-53.06533442 234.00491469 -54.96626406 232.10500375 -56.87109375 230.20703125 C-58.08981377 228.97782245 -59.30730548 227.74739433 -60.5234375 226.515625 C-61.08388763 225.95497345 -61.64433777 225.3943219 -62.22177124 224.81668091 C-69.13797978 217.69204556 -71.85728004 211.16433949 -72.0625 201.2578125 C-72.11857422 200.26587891 -72.11857422 200.26587891 -72.17578125 199.25390625 C-72.32367328 190.69260075 -68.16049381 184.17954747 -62.44473362 178.11314011 C-59.5090456 175.10496075 -56.51539631 172.15880198 -53.51171875 169.21875 C-52.21739626 167.93376941 -50.92418545 166.64766818 -49.6320343 165.36050415 C-46.25152811 161.99895907 -42.85627457 158.65271211 -39.45758057 155.30957031 C-35.98275674 151.88617481 -32.52229398 148.44832802 -29.06054688 145.01171875 C-22.28340368 138.28797081 -15.49057135 131.5803182 -8.6875 124.8828125 C-10.27668033 120.94065861 -13.00219417 118.32558407 -15.99169922 115.41503906 C-16.53176605 114.88110535 -17.07183289 114.34717163 -17.62826538 113.79705811 C-18.79925913 112.6403478 -19.97248214 111.48589088 -21.14767075 110.33344269 C-23.01107068 108.50490764 -24.86722217 106.66929839 -26.72146606 104.83148193 C-31.99387002 99.60789902 -37.27722243 94.3954985 -42.56982422 89.19238281 C-45.80970238 86.00628823 -49.03959332 82.81034262 -52.26367569 79.60826874 C-53.49021004 78.39409599 -54.72051952 77.18372389 -55.95473862 75.97736359 C-57.68736213 74.28349073 -59.4070156 72.5773551 -61.12451172 70.86816406 C-61.63062988 70.37956909 -62.13674805 69.89097412 -62.65820312 69.38757324 C-69.14077666 62.86931227 -71.87597129 55.43478371 -72.0625 46.3203125 C-72.09988281 45.65451172 -72.13726562 44.98871094 -72.17578125 44.30273438 C-72.33118269 35.24628387 -67.94208054 28.97762109 -61.93618774 22.59257507 C-59.42856052 20.01001144 -56.87846385 17.47456087 -54.3046875 14.95800781 C-52.30994201 13.00530843 -50.33757445 11.03193308 -48.3671875 9.0546875 C-47.09240594 7.79039484 -45.81640493 6.5273303 -44.5390625 5.265625 C-43.95653717 4.68330109 -43.37401184 4.10097717 -42.77383423 3.50100708 C-31.03113764 -7.91035997 -13.38825271 -10.54714094 0 0 Z " fill="#FEFEFE" transform="translate(198.6875,132.1171875)"/>
<path d="M0 0 C4.2457192 3.56361264 8.31895684 7.2022689 12.21484375 11.15234375 C12.67427872 11.61556534 13.13371368 12.07878693 13.60707092 12.55604553 C15.53583973 14.50086166 17.45848735 16.4516848 19.3815918 18.40209961 C24.42413933 23.50976755 29.48865576 28.51609812 34.94262695 33.18725586 C39.3338067 37.05630886 43.46585979 41.19766881 47.625 45.3125 C48.99785156 46.6418457 48.99785156 46.6418457 50.3984375 47.99804688 C58.53896218 56.06210709 65.0954668 63.80321038 65.25 75.625 C65.08457471 88.01917151 61.32415764 93.10476553 53 102 C52.10982178 102.95181152 51.21964355 103.90362305 50.30249023 104.88427734 C47.94629103 107.38491718 45.55806655 109.85222618 43.15356445 112.30639648 C42.17430176 113.3124034 41.20227489 114.32550361 40.23754883 115.34545898 C32.44232749 123.57747585 24.30259573 129.94321232 12.5 130.625 C-2.23192175 129.70131947 -10.69677429 120.15493832 -20.25 110.125 C-22.21839552 108.09134579 -24.19188957 106.06274677 -26.16616821 104.0348053 C-27.43262545 102.73354883 -28.6971197 101.43037875 -29.95956421 100.12522888 C-33.51677253 96.46097508 -37.14521383 92.99527094 -41.0546875 89.70507812 C-45.5458073 85.76858456 -49.67315519 81.4273838 -53.875 77.1875 C-54.83309606 76.22437328 -55.79142804 75.2614812 -56.75 74.29882812 C-59.16878844 71.8679802 -61.58464444 69.43425734 -64 67 C-64.66 66.34 -65.32 65.68 -66 65 C-65.57875854 64.64981308 -65.15751709 64.29962616 -64.72351074 63.93882751 C-57.61772599 57.88502389 -51.11256719 51.23846419 -44.53125 44.62890625 C-43.24252928 43.33831715 -41.95358515 42.0479511 -40.66442871 40.75779724 C-37.29542172 37.38499816 -33.92943045 34.00920538 -30.56408691 30.63275146 C-27.12008377 27.17846255 -23.67319751 23.72705315 -20.2265625 20.27539062 C-13.48157161 13.51972087 -6.73976742 6.76088066 0 0 Z " fill="#D5D5D5" transform="translate(321,256)"/>
</svg>
